<?xml version="1.0" encoding="UTF-8"?>
<!-- Generator: Adobe Illustrator 15.0.2, SVG Export Plug-In . SVG Version: 6.00 Build 0)  -->
<!DOCTYPE svg PUBLIC "-//W3C//DTD SVG 1.1//EN" "http://www.w3.org/Graphics/SVG/1.1/DTD/svg11.dtd">
<svg version="1.1" id="Layer_1" xmlns="http://www.w3.org/2000/svg" xmlns:xlink="http://www.w3.org/1999/xlink" x="0px" y="0px" width="865.945px" height="684.846px" viewBox="0 0 865.945 684.846" enable-background="new 0 0 865.945 684.846" xml:space="preserve">
<g>
	<g>
		<path fill="#1D1F73" stroke="#1D1F73" stroke-width="0.0938" stroke-miterlimit="10.43" d="M429.274,22.159h3.15    c16.97,0.28,33.945,2.495,50.295,7.11c36.445,9.99,69.505,30.785,95.72,57.84c27.564,28.33,47.92,63.355,60.265,100.83    c9.675,29.135,14.4,59.82,14.69,90.495v3.415c-0.295,32.16-5.49,64.335-16.115,94.725c-13.14,37.895-34.575,73.1-63.345,101.155    c-28.065,27.444-63.5,47.78-102.03,55.979c-12.92,2.89-26.155,4.18-39.375,4.45h-3.18c-28.181-0.325-56.275-6.705-81.755-18.765    c-34.6-16.15-64.25-41.995-86.645-72.78c-23.895-32.745-39.815-71.07-47.32-110.845c-3.365-17.471-4.94-35.245-5.235-53.021    v-4.695c0.345-32.155,5.585-64.32,16.245-94.69c12.43-35.635,32.16-68.895,58.495-96.02c24.545-25.41,55.08-45.31,88.85-55.975    C390.474,25.414,409.864,22.459,429.274,22.159z M416.189,26.064c-30.845,2.3-60.96,12.435-87.271,28.625    c-29.02,17.75-53.515,42.47-72.175,70.835c-20.015,30.38-33.475,64.939-40.1,100.68c-5.845,31.575-6.485,64.105-1.96,95.89    c5.955,42.135,21.345,83.075,45.68,118.065c19.19,27.59,44.05,51.465,73.245,68.265c27.095,15.695,57.96,25.01,89.285,26.226    c25.75,1.13,51.7-3.11,75.795-12.24c18.975-7.15,36.785-17.28,52.86-29.62c31.815-24.425,56.675-57.34,73.225-93.765    c27.24-59.851,32.365-129.08,15.975-192.625c-9.89-37.945-27.689-74-52.97-104.065c-23.665-28.27-54.12-51.19-88.705-64.27    C472.783,28.009,444.248,23.859,416.189,26.064z"/>
	</g>
	<path fill="#1D1F73" stroke="#1D1F73" stroke-width="0.0938" stroke-miterlimit="10.43" d="M425.493,35.754   c5.25-4.89,13.155-4.645,19.65-2.83c0.16,2.245,0.32,4.49,0.485,6.735c-0.38,0.01-1.135,0.03-1.515,0.04   c-0.545-1.695-1.175-3.53-2.695-4.6c-2.975-2.025-7.395-2.03-10.115,0.445c-1.99,1.795-2.84,4.521-3.01,7.13   c-0.25,3.19,0.355,6.62,2.405,9.17c1.685,2.135,4.525,3.17,7.2,2.93c0.875-0.08,1.67-0.775,1.775-1.665   c0.23-1.73,0.29-3.52,0.015-5.25c-0.74-1.525-2.845-1.125-4.235-1.485c0.005-0.365,0.025-1.095,0.03-1.46   c4.105,0.07,8.215,0.155,12.32,0.23c0.005,0.33,0.02,0.99,0.025,1.315c-0.745,0.39-2.06,0.32-2.185,1.375   c-0.425,2.495-0.195,5.05-0.025,7.56c-4.729,1.11-9.765,1.935-14.515,0.445c-3.495-1.005-6.771-3.33-8.23-6.745   C420.993,44.674,421.939,39.069,425.493,35.754z"/>
	<path fill="#1D1F73" stroke="#1D1F73" stroke-width="0.0938" stroke-miterlimit="10.43" d="M404.764,34.114   c3.404-0.565,6.81-1.125,10.215-1.685c0.06,0.335,0.18,1,0.24,1.335c-1.135,0.5-2.925,0.845-2.945,2.405   c-0.12,4.365,1.24,8.615,1.325,12.975c0.06,2.905-1.045,6.03-3.575,7.655c-3.12,2.03-7.105,2.67-10.73,1.905   c-2.319-0.475-4.16-2.275-4.984-4.45c-1.98-5.01-1.525-10.635-3.53-15.635c-1.1-0.115-2.2-0.17-3.3-0.195   c-0.045-0.34-0.14-1.03-0.186-1.375c4.285-0.695,8.561-1.47,12.855-2.11c0.275,1.82-1.825,1.85-2.94,2.625   c-0.12,1.56,0.021,3.12,0.3,4.66c0.565,3.27,0.95,6.605,2.095,9.74c0.689,1.735,2,3.365,3.84,3.94c2.55,0.72,5.725-0.28,6.925-2.77   c1.285-2.475,0.8-5.35,0.515-8c-0.47-2.77-0.865-5.585-1.81-8.24c-0.57-1.735-2.72-1.32-4.135-1.41   C404.894,35.139,404.809,34.454,404.764,34.114z"/>
	<g>
		<path fill="#1D1F73" stroke="#1D1F73" stroke-width="0.0938" stroke-miterlimit="10.43" d="M458.004,33.714    c4.595,1.045,9.225,1.96,13.8,3.11c3.73,0.98,7.615,2.9,9.41,6.5c2.555,5.65-0.42,13.175-6.225,15.45    c-3.545,1.465-7.515,1.235-11.2,0.49c-3.75-0.795-7.479-1.66-11.22-2.48c0.075-0.335,0.22-1.005,0.295-1.345    c1.1,0.045,2.205,0.045,3.31-0.04c1.66-3.31,1.925-7.08,2.86-10.62c0.46-2.535,1.385-5.03,1.355-7.625    c-0.11-1.345-1.735-1.515-2.681-2.07C457.783,34.739,457.928,34.059,458.004,33.714z M466.484,37.869    c-1.5,5.02-2.385,10.2-3.6,15.295c-0.18,1.28-0.81,3.175,0.635,3.955c2.995,1.445,6.995,0.96,9.285-1.565    c2.09-2.28,2.97-5.415,3.21-8.435c0.17-2.205-0.266-4.6-1.811-6.265C472.248,38.739,469.259,37.994,466.484,37.869z"/>
	</g>
	<path fill="#1D1F73" stroke="#1D1F73" stroke-width="0.0938" stroke-miterlimit="10.43" d="M361.899,45.489   c4.125-1.42,8.255-2.835,12.385-4.25c0.15,0.445,0.3,0.89,0.45,1.335c-1.005,0.54-1.995,1.115-2.94,1.755   c0.311,3.8,2.105,7.25,3.165,10.865c0.931,2.325,1.306,5.04,3.025,6.94c1.94,0.62,3.95-0.425,5.685-1.24   c2.271-1.085,1.896-4.005,2.12-6.085c0.385-0.095,1.155-0.275,1.54-0.365c0.315,2.355,0.63,4.705,0.936,7.06   c-6.325,2.16-12.646,4.325-18.965,6.485c-0.11-0.335-0.325-1.005-0.43-1.34c1.34-0.675,3.495-1.435,2.805-3.38   c-1.18-4.3-2.85-8.46-4.215-12.705c-0.55-1.365-0.854-2.98-2.06-3.94c-1.02-0.265-2.055,0.07-3.06,0.195   C362.189,46.374,362.043,45.929,361.899,45.489z"/>
	<path fill="#1D1F73" stroke="#1D1F73" stroke-width="0.0938" stroke-miterlimit="10.43" d="M491.658,42.084   c3.935,1.675,7.865,3.365,11.795,5.045c-0.13,0.315-0.395,0.94-0.53,1.255c-1.015-0.185-2.035-0.6-3.075-0.36   c-1.635,1.43-2.141,3.67-3.056,5.56c-1.285,3.25-3.109,6.545-2.859,10.14c0.21,3.9,5.149,6.375,8.45,4.4   c2.6-1.485,3.755-4.41,5.01-6.97c1.04-2.625,2.365-5.205,2.75-8.03c-0.141-1.455-1.735-2.02-2.75-2.78   c0.18-0.43,0.365-0.86,0.55-1.29c3.175,1.36,6.35,2.725,9.53,4.09c-0.181,0.425-0.36,0.845-0.53,1.27   c-1.18-0.14-2.645-0.81-3.6,0.22c-3.25,4.35-3.935,10.25-7.88,14.13c-2.64,2.64-6.83,2.63-10.115,1.335   c-3.01-1.15-6.186-3.18-7.021-6.495c-0.665-3.561,1.125-6.9,2.425-10.09c1.07-2.73,2.605-5.335,2.95-8.29   c-0.83-0.665-1.7-1.28-2.585-1.865C491.253,43.044,491.524,42.404,491.658,42.084z"/>
	<path fill="#1D1F73" stroke="#1D1F73" stroke-width="0.0938" stroke-miterlimit="10.43" d="M523.998,56.709   c2.285,1.525,4.575,3.04,6.86,4.56c1.085,7.085,2.155,14.17,3.245,21.255c2.04-3.025,4.115-6.035,5.939-9.2   c0.38-0.805,1.03-1.66,0.78-2.605c-0.465-1.11-1.505-1.82-2.33-2.64c0.195-0.285,0.58-0.865,0.775-1.15   c2.939,1.95,5.885,3.9,8.825,5.86c-0.255,0.375-0.505,0.75-0.75,1.13c-1.08-0.38-2.2-1.165-3.38-0.765   c-0.95,0.59-1.51,1.595-2.175,2.455c-3.64,4.85-6.835,10.005-10.24,15.015c-0.715-0.475-1.42-0.95-2.13-1.425   c-1.069-7.815-2.16-15.63-3.234-23.445c-2.345,3.555-4.825,7.035-6.92,10.745c-0.335,0.74-0.925,1.56-0.596,2.4   c0.45,1.07,1.45,1.765,2.25,2.56c-0.265,0.385-0.529,0.765-0.79,1.15c-2.925-1.94-5.845-3.88-8.765-5.825   c0.18-0.285,0.545-0.85,0.725-1.135c1.265,0.43,2.895,1.49,4.05,0.255c2.685-3.06,4.75-6.605,7.05-9.95   c0.97-1.61,2.33-3.215,2.27-5.2c-0.354-1.235-1.425-2.02-2.3-2.875C523.368,57.589,523.788,57.004,523.998,56.709z"/>
	<path fill="#1D1F73" stroke="#1D1F73" stroke-width="0.0938" stroke-miterlimit="10.43" d="M348.479,57.249   c4.49-1.49,8.945,3.72,7.005,7.97c-1.38,3.92-7.145,4.695-9.65,1.47C343.064,63.769,344.509,58.219,348.479,57.249z"/>
	<g>
		<path fill="#1D1F73" stroke="#1D1F73" stroke-width="0.0938" stroke-miterlimit="10.43" d="M321.739,67.349    c0.455-0.48,0.91-0.96,1.365-1.435c5.665,3.67,11.34,7.325,17,11.005c1.18,0.71,2.4,1.555,3.835,1.57    c0.915-0.145,1.76-0.555,2.625-0.88c0.19,0.28,0.575,0.845,0.765,1.125c-3.28,2.295-6.564,4.575-9.84,6.87    c-0.205-0.28-0.61-0.835-0.815-1.115c0.56-0.62,1.115-1.25,1.655-1.89c-1.35-1.46-3.08-2.465-4.75-3.515    c-1.97,1.4-3.965,2.771-5.95,4.15c0.555,1.855,0.91,3.83,2.055,5.435c0.835-0.35,1.665-0.715,2.49-1.095    c0.265,0.39,0.53,0.775,0.795,1.165c-2.64,1.83-5.28,3.665-7.92,5.495c-0.195-0.285-0.585-0.855-0.78-1.14    c0.55-0.67,1.175-1.3,1.575-2.08c0.52-1.37,0.12-2.855-0.09-4.25C324.418,80.294,323.069,73.824,321.739,67.349z M324.894,73.199    c0.649,2.665,1.32,5.325,1.985,7.99c1.62-1.13,3.24-2.255,4.86-3.39C329.458,76.264,327.184,74.719,324.894,73.199z"/>
	</g>
	<g>
		<path fill="#1D1F73" stroke="#1D1F73" stroke-width="0.0938" stroke-miterlimit="10.43" d="M403.839,68.304    c13.735-2.18,27.74-2.64,41.595-1.43c12.234,1.175,24.47,3.83,35.58,9.215c8.154,3.96,15.71,9.395,21.515,16.4    c8.475,10.07,13.765,22.94,14.23,36.135c0.035,27.45-0.015,54.905,0.025,82.355c-1.81,0.1-3.84,0.535-4.785,2.265    c-1.604,2.14-0.785,4.96,0.73,6.89c0.16-1.885,0.35-3.95,1.774-5.355c1.375-1.635,3.58-2.09,5.625-2.025    c0.82,1.425,1.5,3.095,0.985,4.755c-0.37,1.655-1.765,2.735-3.13,3.585c1.565,4.08,5.52,7.085,9.93,7.225    c5.515,0.68,10.976-4,10.9-9.625c-0.525-0.38-1.035-0.745-1.555-1.11c-0.94,2.285-3.29,4.17-5.875,3.561    c-3.365-0.405-5.335-4.646-3.54-7.505c1.345-2.515,4.955-3.35,7.255-1.65c1.444,0.87,1.91,2.59,2.47,4.065    c1.38-0.435,1.91-1.705,2.23-3c-2-0.675-3.985-2.115-4.26-4.355c-0.675-3.295,2.595-6.575,5.896-5.82    c2.83,0.396,4.814,3.516,4.02,6.255c-0.405,2.065-2.325,3.25-4.16,3.905c0.271,1.32,0.92,2.5,2.186,3.115    c0.595-1.705,1.229-3.645,3-4.475c2.97-1.74,7.2,0.505,7.395,3.945c0.476,3.255-2.814,6.271-6.02,5.515    c-1.93-0.28-3.22-1.9-4.021-3.545c-0.524,0.35-1.05,0.705-1.564,1.06c0.1,2.85,1.305,5.69,3.609,7.44    c4.15,3.475,10.795,2.795,14.561-0.925c1.22-1.16,1.995-2.67,2.715-4.16c-0.565-0.36-1.125-0.715-1.68-1.065    c-0.04-2.045,0.47-4.24,2.115-5.6c1.415-1.34,3.43-1.555,5.285-1.625c-1.41-1.205-3.17-1.855-5.03-1.76    c-0.01-24.705,0.035-49.41-0.025-74.115c25.175,33.735,40.095,74.64,44.355,116.405c4.115,39.275-0.885,79.53-14.985,116.45    c-6.445,0.01-12.885,0.055-19.325,0.01c2.155,1.955,4.075,4.89,2.97,7.905c-0.814,2.185-3.535,2.105-5.46,2.27    c-11.655,0.16-23.31,0.03-34.965,0.07c-9.17-0.05-18.335,0.11-27.5-0.085c-2.075-0.01-4.84-0.415-5.545-2.73    c-0.86-2.91,0.99-5.665,3.08-7.515c-12.015,0.015-24.03-0.005-36.045,0.01c3.495-5.305,5.9-11.275,7.325-17.45    c4.875-18.415,5.745-37.585,6.05-56.54c0.07-13.535,0.565-27.075-0.2-40.595c0.78-0.94,1.445-2.045,1.4-3.31    c-0.125-3.74-2.3-7.145-5.295-9.295c0.115-1.97-1.2-3.35-2.54-4.57c-0.94-1.895-1.295-4.06-1.49-6.155    c-0.285-8-2.775-15.69-5.205-23.25c1.5-0.055,3.275,0.31,4.525-0.76c1.275-1.175,0.93-3.115,0.405-4.57    c-1.8-3.835-5.04-6.825-6.585-10.8c-1.229-3.125-2.88-6.24-2.895-9.68c-0.545-9.84,1.435-19.86-0.985-29.55    c-1.12-4.635-3.685-9.095-7.86-11.59c-3.055-1.835-6.69-2.605-9.445-4.965c-0.7,3.885-4.505,5.985-7.99,6.94    c-5.61,1.47-11.88,1.225-17.11-1.425c-2.31-1.105-3.94-3.335-4.14-5.91c0.175-0.28,0.53-0.845,0.705-1.125    c-3.255,0.375-6.465,1.025-9.69,1.595c-3.57,0.595-6.485,3.396-7.765,6.71c-2.2,5.75-4.64,11.415-6.515,17.285    c-4.271-5.205-9.46-9.545-14.26-14.24c-2.17,0.05-4.275,0.64-6.35,1.21c5.525,4.425,10.51,9.46,15.29,14.665    c2.44,2.9,5.055,5.705,6.885,9.055c-2.564-0.92-5.055-2.085-7.72-2.7c-7.255-1.915-14.845-2.05-22.29-1.555    c-1.245,1.705-2.48,3.425-3.71,5.145c7.385-0.645,14.86-0.935,22.225,0.095c3.061,0.5,6.186,1.16,8.905,2.715    c1.465,0.8,2.405,2.265,3.8,3.16c1.54,0.855,3.98,0.505,4.65-1.305c0.42-1.45,0.45-3.035,1.24-4.365    c4.295-8.335,11.734-14.54,19.63-19.335c3.195-1.939,6.57-3.56,10.03-4.965c2.895,9.015,5.79,18.03,8.69,27.045    c2.14,0.29,4.275,0.625,6.38,1.135c-1.115-2.085-3.695-3.955-3.15-6.545c1.88-0.395,3.915-0.115,5.68-1    c1.91-1.06,3.35-2.99,3.585-5.195c0.445-3.755-1.275-7.265-2.575-10.675c0.37-0.115,1.105-0.35,1.47-0.465    c1.535,4.195,3.805,8.57,2.8,13.165c-0.475,2.45-2.41,4.155-4.16,5.755c-1.425,1.165-1.535,3.255-0.82,4.845    c0.37,1.104,1.545,1.55,2.28,2.365c0.16,1.935,0.015,3.88,0.035,5.82c-7.275-2.525-15.085-2.655-22.69-3.245    c1.12-0.595,2.64-1.01,2.95-2.425c-1.84-0.245-3.66,0.385-5.5,0.17c2.715-2.35,6.59-3.88,7.675-7.665    c-0.255-0.195-0.755-0.595-1.01-0.795c-0.44-0.435-0.785-1.445-1.585-1.165c-1.875,0.48-3.525,1.565-5.355,2.18    c-1.055,0.325-2.255,1.125-3.24,0.205c1.74-2.75,4.535-4.93,5.25-8.25c-0.935,0.075-1.975,0.03-2.705,0.73    c-3.565,2.885-6.75,6.655-11.325,7.935c-0.065-1.805,0.435-3.7-0.205-5.445c-0.385-0.925-1.505-0.99-2.32-1.295    c-0.229,1.285-0.24,2.62-0.615,3.88c-0.625,1.63-1.86,3.01-2.15,4.77c-0.265,1.095-0.245,2.28-0.735,3.31    c-3.79,3.145-8.765,4.99-13.715,4.63c-1.14-0.115-2.505,0.03-3.38-0.87c-2.42-2.355-6.22-3.4-9.45-2.295    c-2.605,1.29-4.15,4-5.31,6.555c-2.351,6.12-2.365,12.89-1.38,19.3c0.455,3.215,1.7,6.605,4.405,8.595    c2.24,1.63,5.311,0.64,7.18-1.095c5.035-4.774,8.305-11.14,10.24-17.745c4.905-1.43,9.186-4.235,13.306-7.165    c2.87-2.1,6.439-2.665,9.85-3.3c0,0.33-0.01,0.985-0.01,1.315c-3.79,1.76-6.95,4.535-10.225,7.064    c-0.775,0.681-1.795,1.235-2.115,2.28c-2.705,7.33-7.625,13.7-9.665,21.3c-0.46,1.675-0.485,3.68,0.939,4.915    c1.44,1.25,1.135,3.29,0.745,4.945c-2.535,11-4.205,22.18-5.575,33.38c-0.279,2.945-1.295,5.945-0.415,8.88    c0.29,1.105,1.29,1.84,2.37,2.08c4.075,1.09,8.34,1.27,12.54,1.11c2.226-0.07,4.245,1.005,6.365,1.495    c-0.4,3.145-0.16,6.585-1.86,9.4c-1.435-1.729-1.39-4.075-1.67-6.18c-1.045-0.515-2.13-1.065-3.335-0.845    c-3.024,0.315-6.03-0.22-9.04-0.415c-1.255-0.17-2.685,0.655-2.81,1.99c-0.7,4.805-0.39,9.695-1.105,14.505    c-1.115,8.425-0.67,16.96-1.194,25.43c-0.771,13.93-1.37,27.87-1.885,41.814c-7.44,0.056-14.96,0-22.25-1.63    c-2-0.604-4.24-1.055-5.72-2.64c-1.005-1.045-0.575-2.675,0.325-3.625c1.505-1.67,3.28-3.08,5-4.515    c1.965-1.69,4.885-1.845,6.555-3.94c6.205-7.075,8.335-16.505,10.61-25.375c0.545-2.485,1.71-5.06,0.945-7.615    c-0.24-0.075-0.715-0.225-0.95-0.3c-2.021,1.17-3.14,3.335-4.2,5.32c-2.025,4.16-4.095,8.62-8.03,11.325    c-1.285,0.93-3.149,1.565-4.58,0.57c-1.734-1.175-2.314-3.395-2.365-5.375c-0.06-3.715,1.755-7.2,4.185-9.905    c1.13-1.275,2.905-1.71,4.545-1.42c0.79,0.686,1.525,2.7,2.765,1.735c1.75-1.745,2.45-4.24,3.81-6.27    c3.105-4.975,5.155-10.53,6.675-16.17c1.085-4.745,2.355-9.535,2.175-14.445c-0.07-2.39-0.095-4.985-1.535-7.01    c-0.515-0.725-1.46-1.43-2.38-1.06c-2.02,0.805-1.7,4.115-4.075,4.43c-1.455-0.92-1.28-2.875-1.04-4.34    c2.475-13.325,7.585-25.939,12.28-38.59c1.19-2.345-2.015-3.075-2.495-4.91c0.22-2.81,1.29-5.47,2.22-8.11    c1.694-4.21,3.41-8.415,5.515-12.44c0.9-1.965,2.095-3.815,2.73-5.885c-0.2-1.345-1.69,0.015-2.05,0.595    c-5.16,8.04-9.1,16.81-12.38,25.765c-5.78,15.925-10.04,32.41-12.685,49.145c-0.49,3.305-0.68,7.13,1.335,9.99    c1.6,1.93,4.205,0.555,5.85-0.565c-1.27,4.675-3.465,9.065-6.325,12.97c-5.6,7.64-10.63,16.035-12.475,25.44    c-0.76,4.345-0.945,9.18,1.49,13.065c1.49,2.495,3.17,5.5,1.975,8.465c-2.45,6.024-9.955,8.05-12.185,14.22    c-1.235,2.915,0.365,6.105,2.615,8.01c2.975,2.575,6.55,4.311,9.805,6.495c-5.49-0.005-10.975,0.02-16.465-0.015    c1.45,1.455,2.955,3.109,3.2,5.245c0.255,1.575-0.06,3.63-1.69,4.355c-2.13,0.795-4.46,0.67-6.695,0.73    c-19.17-0.03-38.345-0.03-57.515-0.075c-2.185-0.12-4.595,0.25-6.535-0.98c-1.44-0.95-1.64-2.899-1.33-4.45    c0.36-1.94,1.77-3.415,3.09-4.775c-5.745,0.04-11.49,0.025-17.235,0.045c-17.255-45.065-20.88-95.12-10.96-142.3    c6.9-32.896,20.665-64.44,40.885-91.345c0.025,25.125-0.03,50.25,0.03,75.37c-2.225-0.765-4.61-0.3-6.38,1.25    c1.81,0.115,3.77,0.265,5.17,1.56c1.655,1.29,2.195,3.44,2.235,5.45c-0.28,0.205-0.835,0.609-1.115,0.814    c-0.285,2.595,1.76,4.47,3.66,5.86c3.135,2.035,7.375,2.515,10.785,0.885c3.405-1.51,5.65-5.035,5.685-8.745    c-0.52-0.37-1.04-0.729-1.555-1.09c-0.935,2.325-3.345,4.175-5.945,3.535c-3.31-0.475-5.25-4.65-3.45-7.485    c1.34-2.485,4.865-3.33,7.18-1.71c1.505,0.86,1.965,2.64,2.545,4.146c1.38-0.45,1.9-1.745,2.24-3.035    c-2.025-0.68-4.035-2.145-4.28-4.43c-0.605-3.195,2.485-6.34,5.69-5.765c2.915,0.29,5.055,3.455,4.225,6.271    c-0.415,2.064-2.315,3.29-4.175,3.92c0.295,1.305,0.94,2.46,2.135,3.135c0.735-2.11,1.855-4.575,4.345-4.955    c3.395-0.9,6.925,2.525,6.05,5.95c-0.476,2.99-4.005,4.885-6.785,3.74c-1.54-0.525-2.46-1.94-3.17-3.315    c-0.535,0.36-1.065,0.72-1.595,1.09c0.105,3.585,2.14,7.035,5.41,8.595c5.65,2.935,13.355-0.13,15.44-6.165    c-1.32-0.865-2.73-1.9-3.11-3.53c-0.515-1.63,0.1-3.29,0.896-4.705c2.035-0.02,4.229,0.46,5.58,2.115    c1.38,1.395,1.555,3.43,1.67,5.285c1.14-1.62,2.17-3.61,1.415-5.625c-0.755-2.585-3.53-3.87-6.075-3.515    c-0.005-27.495,0.02-54.995-0.015-82.495c-1-16.365,6.4-32.905,19.095-43.24C373.924,75.659,388.924,70.739,403.839,68.304z     M417.203,74.159c-0.45,2.19,1.46,3.515,2.85,4.8c-0.34,0.7-0.545,1.915-1.605,1.59c-1.905-0.75-3.32-2.355-5.16-3.24    c-3.875-2.24-8.935-3.02-12.96-0.74c-1.845,1.005-3.78,2.81-3.5,5.11c0.155,1.72,2.1,2.385,2.61,3.905    c-1.57,2.021-2.771,4.49-2.41,7.125c0.565,5.37,7.92,8.625,12.15,5.146c2.465-1.925,2.84-5.275,2.855-8.186    c0.08-1.41-0.255-2.985,0.575-4.24c1.12-1.955,3.88-1.985,5.73-1.18c0.96,0.305,1.18,1.645,0.435,2.3    c-1.58,1.76-3.44,3.31-4.625,5.395c-2.08,3.365-2.31,7.385-2.83,11.195c-0.68,3.855-4.87,5.11-7.06,7.865    c-1.485,1.75-1.235,4.385,0.19,6.085c0.94,1.57,3.18,3.1,2.165,5.16c-1.49,2.68-4.11,4.465-6.05,6.79    c0.76,0.275,1.525,0.545,2.33,0.675c5.79,0.34,11.56-0.41,17.32-0.88c-0.38-0.729-0.765-1.465-1.145-2.19    c-4.37,0.485-8.775,0.585-13.17,0.38c2.335-1.82,4.655-4.155,4.915-7.271c0.39-2.415-0.705-4.649-1.81-6.7    c-0.895-1.415,0.125-3.19,1.545-3.745c4.24-1.67,9.11-1.485,13.215,0.515c-3.01-0.11-6.215-0.25-8.94,1.255    c0.175,0.76,0.365,1.525,0.55,2.285c2.59-0.535,5.15-1.33,7.815-1.415c-0.125,1.7-1.9,1.365-3.09,1.61    c0.42,0.34,0.845,0.68,1.27,1.025c-0.465,0.815-1.14,1.41-2.085,1.55c-0.24-0.27-0.72-0.82-0.96-1.09    c0.005-0.32,0.025-0.955,0.03-1.27c-0.89,0.205-1.78,0.405-2.665,0.61c1.005,2.185,1.445,4.545,2.02,6.86    c1.311,3.08,2.655,6.66,5.865,8.225c2.015,1.105,4.335,0.295,6.49,0.56c-0.79,2.22-3.815,1.995-5.76,2.18    c0.12,0.445,0.355,1.33,0.47,1.775c-1.265,0.21-2.53,0.42-3.785,0.645c0.065,1.561,0.415,3.186,1.54,4.345    c2.73,2.975,6.96,4.015,10.87,4.02c3.75-0.045,7.765-1.045,10.46-3.8c1.35-1.435,2.385-3.835,1.125-5.63    c-1.52-2.605-3.28-5.295-3.26-8.43c5.555-0.435,11.115-0.95,16.58-2.07c0.77-0.215,2.08-0.775,1.44-1.765    c-3.295-1.61-7.78-1.695-9.835-5.205c-1.25-2.93,0.185-6.33-1.21-9.255c-1.085-2.755-4.03-3.85-6.545-4.9    c-0.09-2.155-0.245-4.355-1.135-6.345c-0.97-2.48-3.226-4.095-4.525-6.365c1.525-0.646,2.815,0.56,3.92,1.45    c1.94,1.595,2.735,4.32,5.085,5.45c2.436,1.14,5.21,1.305,7.855,1.175c4.6-0.24,8.07-4.76,7.965-9.2    c-0.055-2.41-0.085-5.16-1.92-6.985c-1.985-1.875-4.97-2.125-7.55-1.765c-1.495,0.255-3.385,0.95-3.545,2.71    c-0.345,2.229-1.11,4.835-3.465,5.689c-2.425,1.18-4.98-0.265-7.07-1.475c-0.37-0.4-1.465-0.87-0.825-1.52    c1.25-1.115,2.94-1.7,3.945-3.11c2.189-2.64,1.689-7.396-1.535-8.995c-2.575-1.54-6.135-0.945-8.035,1.38    c-0.545,1.055-0.69,2.26-1.235,3.315c-0.8,0.73-2.229,0.205-2.71-0.67c-0.71-1.63-0.064-3.715-1.33-5.125    C423.359,69.029,417.559,70.024,417.203,74.159z M265.083,212.874c1.896,0.13,3.96,0.36,5.37,1.785    c1.655,1.4,1.945,3.65,2.085,5.68c0.875-1.365,1.885-2.865,1.61-4.575c-0.215-2.755-3.03-4.945-5.745-4.485    C267.149,211.439,266.138,212.244,265.083,212.874z M484.609,215.749c-0.275,1.7,0.75,3.18,1.595,4.555    c0.146-1.95,0.38-4.07,1.88-5.49c1.38-1.62,3.595-1.896,5.59-1.985c-1.285-0.84-2.655-1.805-4.27-1.65    C486.953,211.244,484.809,213.319,484.609,215.749z M586.444,215.629c-0.34,1.755,0.695,3.28,1.6,4.665    c0.07-1.985,0.346-4.155,1.91-5.564c1.41-1.555,3.59-1.805,5.57-1.9c-1.13-0.66-2.215-1.53-3.57-1.625    C589.309,210.849,586.678,212.984,586.444,215.629z M366.734,212.979c2.05,0.109,4.305,0.439,5.72,2.104    c1.436,1.396,1.65,3.465,1.755,5.355c0.94-1.405,1.97-2.995,1.595-4.775c-0.32-2.73-3.19-4.8-5.875-4.26    C368.724,211.599,367.754,212.379,366.734,212.979z M276.309,216.884c1.95,0.115,4.095,0.355,5.5,1.875    c1.564,1.415,1.87,3.6,1.95,5.595c0.705-1.125,1.57-2.245,1.66-3.62c0.29-2.67-1.895-5.255-4.56-5.47    C279.144,214.974,277.674,216.02,276.309,216.884z M495.769,219.704c-0.34,1.74,0.66,3.31,1.63,4.655    c0.02-2.04,0.415-4.25,2.03-5.66c1.4-1.45,3.48-1.68,5.385-1.81c-1.355-0.85-2.82-1.86-4.515-1.6    C498.009,215.479,496.003,217.409,495.769,219.704z M575.214,219.719c-0.27,1.705,0.73,3.205,1.68,4.52    c-0.025-2.02,0.37-4.2,1.945-5.61c1.4-1.479,3.505-1.745,5.435-1.85c-1.07-0.645-2.095-1.48-3.38-1.605    C578.174,214.744,575.418,216.984,575.214,219.719z M355.684,216.949c1.945,0.145,4.095,0.35,5.5,1.885    c1.59,1.405,1.87,3.595,1.97,5.59c0.605-1.04,1.39-2.04,1.565-3.265c0.505-2.715-1.63-5.575-4.395-5.81    C358.594,215.039,357.069,216.074,355.684,216.949z M343.748,222.419c0.51,2.995,1.885,6.195,4.8,7.55    c3.005,1.475,6.545,0.81,9.4-0.705c-2.58,0.58-5.42,1-7.875-0.25c-2.89-1.385-4.245-4.61-4.835-7.58    C344.739,221.759,344.243,222.089,343.748,222.419z M515.323,221.224c-0.565,2.74-1.66,5.64-4.085,7.255    c-2.655,1.72-6.065,1.465-8.925,0.43c2.735,1.725,6.275,2.42,9.325,1.115c3.005-1.245,4.654-4.465,5.069-7.555    C516.259,222.034,515.799,221.619,515.323,221.224z M364.803,226.594c-1.92,4.155-1.495,8.865-1.475,13.315    c-29,0.005-58-0.005-87,0.005c0.005,16.745,0,33.485,0.005,50.23c0.04,5.029-0.165,10.069,0.315,15.085    c0.905,8.64,4.425,17.005,10.055,23.63c6.5,7.79,15.755,13.28,25.76,15.055c8.005,1.56,16.405,0.725,24.025-2.16    c-11.535,6.505-25.95,7.5-38.25,2.561c0,7.3,0,14.595,0,21.89c14.925,0,29.85,0,44.78,0c-0.005-9.19,0.01-18.38-0.01-27.57    c3.75-2.44,7.385-5.13,10.33-8.52c6.265-6.85,10.255-15.75,11.19-24.99c0.44-4.65,0.275-9.325,0.305-13.985    c0-16.335-0.005-32.665,0-49c-0.015-4.175-0.274-8.38,0.29-12.53c0.305-2.46,1.391-4.715,2.83-6.7    C366.708,223.949,365.453,225.069,364.803,226.594z M493.814,222.869c2.5,3.195,3.165,7.33,3.11,11.285    c0.005,19.065-0.005,38.14,0,57.21c7.15-0.005,14.305,0,21.455,0c0-3.975-0.005-7.945,0-11.915c-1.859,0.45-3.75,0.74-5.614,1.15    c-1.675,0.315-0.745,2.43-0.99,3.58c-0.655-0.775-1.205-1.635-1.73-2.49c-0.689,0.859-1.165,1.85-1.625,2.845    c-0.125-1-0.189-2.01-0.25-3.015c-0.805,0.484-1.59,1-2.37,1.52c0.32-1.205,0.81-2.35,1.455-3.415    c-0.465,0.035-1.385,0.11-1.845,0.15c0.62-0.55,1.13-1.42,2.055-1.475c1.005,0.215,1.9,0.775,2.875,1.1    c1.67-0.84,3.115-2.07,4.825-2.85c-0.96-0.445-1.77-1.12-2.5-1.865c2.815-0.24,3.735-3.255,5.735-4.805    c0.005-1.07,0.005-2.14,0.015-3.205c-1.08-0.525-2.149-1.045-3.225-1.56c-1.965,1.82-3.771,3.84-6.021,5.325    c-1.274,0.645-1.185,2.245-1.615,3.425c-0.29-0.385-0.87-1.145-1.165-1.53c-1.36-0.26-1.825,1.271-2.57,2.061    c-0.085-1.01-0.085-2.025-0.035-3.03c-0.885,0.38-1.77,0.755-2.66,1.11c0.396-1.105,1.23-1.91,2.16-2.575    c-0.81-0.1-1.615-0.205-2.415-0.32c0.785-0.48,1.525-1.26,2.521-1.235c1.069-0.045,1.755,0.91,2.535,1.49    c1.9-2.05,3.77-4.135,5.835-6.02c-1.31-0.165-2.61-0.385-3.87-0.765c1.524-0.36,3.064-0.76,4.404-1.61    c-2.779-2.385-5.729-4.58-8.229-7.28c-1.235-0.07-2.396-0.46-3.39-1.185c0.98-0.215,1.965-0.42,2.95-0.66    c-0.885-0.686-1.8-1.325-2.705-1.97c0.891,0.06,1.785,0.13,2.681,0.215c-0.465-0.755-0.925-1.505-1.38-2.255    c0.92,0.485,1.82,1.015,2.7,1.58c-0.085-0.64-0.25-1.915-0.335-2.555c1.36,1.245,1.86,3.025,1.865,4.815    c2.24,1.604,4.48,3.2,6.73,4.795c1.12,0.8,2.54,1.475,3.94,1.05c1.22-0.315,2.005-1.37,2.74-2.305    c-0.61-1.255-1.905-1.55-3.14-1.795c0.175-2.06,2.61-1.085,3.96-1.66c-1.355-1.15-3.9-1.255-4.15-3.345    c1.34-0.565,2.48-1.53,3.83-2.05c1.225,0.085,2.4,0.49,3.62,0.646c1.274-0.17,2.52-0.705,3.82-0.29    c-0.33,0.235-1,0.705-1.335,0.939c0.265,1.55-0.31,3.025-0.585,4.525c-0.31,1.415,0.83,2.55,1.405,3.73    c-1.245,0.2-2.465,0-3.64-0.41c0.445,0.835,0.74,1.83,1.57,2.385c1.225,0.84,2.76,0.97,4.155,1.38    c-1.685,1.62-4.08,1.225-6.195,1.34c1.81,1.79,4.375,2.495,6.3,4.155c1.725,0,3.45,0.005,5.175-0.005    c0.49-5.38-5.79-8.325-5.855-13.605c0.096-1.78,1.76-3.215,3.54-3.05c1.365,0.155,2.595-0.74,3.931-0.605    c1.87,0.82,2.939,3.16,2.1,5.075c-0.645,1.72-0.545,3.54-0.12,5.3c-3.36-1.22-5.83-4.805-4.79-8.425    c-0.805,0.101-1.625,0.12-2.395,0.385c-1.306,0.9-0.72,2.695-0.141,3.865c1.73,3.686,5.766,6.585,5.226,11.075    c1.55-0.01,3.1-0.01,4.655-0.01c0-8.46,0-16.925,0-25.39c-14.1-0.025-28.205,0.05-42.305-0.035    c0.015-3.42,0.265-6.895-0.46-10.265C497.553,226.859,496.104,224.389,493.814,222.869z M275.714,225.474    c1.67,2.485,4.06,4.745,7.14,5.175c2.435,0.59,4.92-0.165,7.055-1.345c-1.99,0.31-4.04,0.82-6.035,0.27    c-2.88-0.545-5.075-2.72-6.67-5.055C276.703,224.834,276.208,225.154,275.714,225.474z M577.918,229.179    c-2.31,0.935-4.805,0.495-7.17,0.095c2.175,1.215,4.74,1.865,7.215,1.26c2.995-0.465,5.27-2.73,6.925-5.13    c-0.511-0.325-1.016-0.66-1.511-0.98C581.984,226.419,580.274,228.334,577.918,229.179z M542.549,239.799    c0,8.465,0,16.925,0,25.39c4.225-0.07,8.46,0.165,12.675-0.16c-0.91-0.74-1.86-1.43-2.806-2.115c1.51-0.22,2.99-0.635,4.306-1.43    c-2.745-2.445-5.745-4.595-8.23-7.325c-1.235-0.07-2.395-0.46-3.39-1.185c0.975-0.22,1.955-0.42,2.925-0.665    c-0.88-0.685-1.78-1.325-2.685-1.97c0.89,0.065,1.785,0.141,2.68,0.226c-0.465-0.755-0.915-1.515-1.36-2.271    c0.89,0.495,1.765,1.035,2.625,1.595c-0.075-0.635-0.22-1.915-0.29-2.555c1.315,1.271,1.825,3.03,1.79,4.82    c1.765,1.285,3.515,2.595,5.29,3.87c0.96,0.695,2.08,1.25,3.3,1.22c0.44-0.475,0.795-1.025,1.17-1.555    c-0.97-0.505-1.915-1.04-2.835-1.625c0.91-0.351,1.83-0.695,2.745-1.05c0.521-1.31,0.07-3.2,1.275-4.085    c2.33,0.34,4.62,0.93,6.93,1.405c-0.005,2.355-1.27,4.84,0.32,6.965c-0.925-0.065-1.845-0.135-2.755-0.22    c-0.3,2.07,0.745,4.2,2.645,5.12c2.345,1.12,4.49,2.595,6.465,4.285c1.505-0.04,3.835-0.29,3.715-2.335    c-0.57-4.745-5.775-7.575-5.915-12.48c0.09-2.455,2.745-3.49,4.864-3.09c0.891-0.28,1.851-0.95,2.8-0.475    c1.755,0.88,2.705,3.149,1.895,4.995c-0.64,1.72-0.555,3.53-0.085,5.285c-3.375-1.23-5.845-4.8-4.825-8.445    c-1,0.185-2.24-0.015-2.93,0.899c-0.42,0.86-0.235,1.845,0.125,2.695c1.245,3.205,4.09,5.495,5.23,8.755    c0.35,1.465,0.535,3.36-0.75,4.445c-1.015,0.965-2.505,0.945-3.785,1.229c0.485,1.101,1.035,2.175,1.67,3.205    c-0.735,0.995-1.505,2.38-0.49,3.485c0.72,1.095,2.025,0.585,3.03,0.28c-0.096,1.475-0.141,3.025-0.91,4.34    c-1.49,2.77-4.32,4.36-6.86,6.024c0.396,0.745,1.03,1.431,1.125,2.311c-0.285,0.439-0.575,0.875-0.875,1.305    c-0.325-0.84-0.595-1.685-0.995-2.485c-1,0.59-1.609,1.595-2.32,2.47c0.185-0.96,0.385-1.92,0.59-2.87    c-0.87,0.77-1.695,1.58-2.53,2.38c0.27-0.935,0.57-1.86,0.89-2.775c-0.95,0.55-1.88,1.13-2.81,1.715    c0.375-1.01,0.625-2.18,1.58-2.825c1.74-1.061,4.215-0.23,5.725-1.785c1.175-1.185,0.805-3.005,0.925-4.51    c-1.4,0.78-2.895,1.38-4.505,1.515c0.615-0.955,1.605-1.835,1.545-3.065c-0.095-2.24-0.45-4.46-0.355-6.705    c-1.495,2.325-3.425,4.32-5.65,5.955c0.74,0.305,1.485,0.62,2.23,0.945c-0.705,0.76-1.455,1.47-2.26,2.125    c-0.01,4.165-0.005,8.335-0.005,12.505c7.065-0.005,14.125,0,21.185-0.005c0.005-17.229,0-34.465,0.005-51.7    C571.259,239.799,556.904,239.799,542.549,239.799z M519.059,248.039c0.2,0.335,0.6,1.005,0.805,1.34    c0.67-0.445,1.355-0.875,2.05-1.295C520.958,248.064,520.003,248.039,519.059,248.039z M561.928,250.374    c0.43,0.575,0.845,1.155,1.3,1.72c0.58,0.505,1.045-0.265,1.535-0.525C563.828,251.129,562.889,250.734,561.928,250.374z     M564.428,252.049c1.14,1.125,2.34,0.3,3.405-0.445C566.678,251.544,565.509,251.619,564.428,252.049z M561.458,255.359    c1.521-0.255,2.97-0.01,4.095,1.09c-0.27-0.8-0.375-1.87-1.39-2.04C563.128,253.969,562.248,254.834,561.458,255.359z     M528.208,266.944c3.3,4.09,6.61,8.165,9.91,12.26c0.905-0.005,1.815-0.005,2.73,0c0-4.085,0-8.175,0-12.265    C536.634,266.944,532.424,266.939,528.208,266.944z M542.489,266.939c0,4.104-0.005,8.21,0,12.314    c1.7-0.005,3.405-0.005,5.11-0.005c-0.045-1.655,0.185-3.365-0.285-4.975c-0.925-1.19-2.73-0.795-3.755-1.855    c3.649-0.3,7.365-0.36,11.015,0.03c-1.145,0.96-2.94,0.69-3.9,1.885c-0.515,1.58-0.265,3.28-0.315,4.915c0.76,0,1.53,0,2.3,0.005    c0,1.795-0.01,3.59,0.025,5.385c1.715,0.16,3.795,0.31,5.03-1.155c1.52-1.935,1.09-4.55,0.965-6.82    c0.4,0.005,1.19,0.015,1.585,0.02c-0.165,2.15-0.101,4.41-0.936,6.44c-1.26,2.39-4.25,2.78-6.68,2.85    c0.015,1.835,0.01,3.675,0.01,5.515c3.365-0.005,6.73-0.005,10.095,0c0-8.185,0-16.365,0-24.55    C555.998,266.939,549.243,266.939,542.489,266.939z M564.439,267.409c0,0.55,0,1.11,0.01,1.665c0.71-0.215,1.43-0.43,2.155-0.645    c-0.035-0.175-0.101-0.52-0.135-0.695C565.783,267.619,565.114,267.514,564.439,267.409z M520.194,274.809    c-0.01,5.565,0,11.13-0.005,16.695c3.365,0,6.729-0.005,10.095,0c0-1.405,0-2.81,0.005-4.215    C526.924,283.129,523.564,278.964,520.194,274.809z M531.924,280.864c0,2.03,0,4.06,0,6.095c2.03-0.005,4.06-0.005,6.095-0.005    c-0.005-2.03,0-4.06,0-6.09C535.984,280.859,533.953,280.859,531.924,280.864z M544.924,280.864c0,2.03,0,4.06,0,6.09    c2.02,0,4.04,0,6.065,0c-0.005-2.03-0.005-4.06-0.005-6.09C548.964,280.859,546.944,280.859,544.924,280.864z M538.019,286.954    c0,2.305,0,4.605,0,6.91c2.3-0.005,4.6-0.005,6.905-0.005c0-2.3,0-4.6,0-6.9C542.618,286.954,540.319,286.954,538.019,286.954z     M497.064,293.174c0.005,4.98-0.146,9.99,0.67,14.92c7.995,0.01,15.995-0.005,23.99,0.01c-2.66-4.495-3.465-9.775-3.21-14.931    C511.364,293.174,504.214,293.174,497.064,293.174z M520.089,293.099c-0.25,5.625,0.775,11.555,4.385,16.05    c3.805,5.125,9.984,8.189,16.325,8.479c0-4.095,0-8.189,0-12.28c-0.74-0.12-1.48-0.235-2.21-0.345    c-0.285,1.516-0.275,3.266-1.465,4.42c-1.76,1.695-4.425,2.045-6.755,1.66c-1.525-0.31-3.245-0.99-3.805-2.585    c-0.965-2.84-0.01-5.92-0.705-8.795c-0.53-1.285-2.235-1.075-3.345-1.4l0.05-0.8c2.72,0.005,5.435-0.02,8.155,0.016    c-0.27-1.46-0.42-2.945-0.495-4.425C526.844,293.099,523.464,293.094,520.089,293.099z M552.678,293.164    c-0.085,1.22-0.205,2.44-0.33,3.66c2.595,3.27,5.215,6.515,7.85,9.75c2.195-4.105,2.745-8.81,2.545-13.4    C559.389,293.169,556.033,293.184,552.678,293.164z M564.509,293.249c0.065,3.155-0.1,6.33-0.835,9.415    c3.625-0.1,7.26-0.475,10.88-0.035c2.31-0.265,5.745-1.18,5.625-4.109c-3.26-0.57-5.93,2.585-9.145,1.51    c-1.205-0.365-0.98-1.91-0.645-2.825c0.505-1.365,2.185-1.2,3.35-1.26c-0.175,1.705-1.86,2.09-3.18,2.6    c0.515,0.49,1.04,1.155,1.859,1.05c2.66-0.185,5.005-2.53,7.775-1.705c0.48,0.37,1.285,1.045,0.775,1.72    c-0.7,2.229-3.09,2.995-5.085,3.63c0.585,1.075,0.95,2.275,1.63,3.305c0.795,0.235,1.635,0.18,2.465,0.215    c-0.405,1.545-0.5,3.27-1.425,4.62c-1.025,0.391-2.145,0-3.17-0.125c0.8-0.3,1.645-0.455,2.495-0.55    c0.175-0.765,0.355-1.53,0.54-2.29c-2.024-0.015-3.795-1.085-4.95-2.705c-1.525,1.98-3.26,3.825-5.305,5.28    c-0.725,0.725-1.755,0.285-2.625,0.24c2.67-1.445,4.755-3.73,6.3-6.315c-3.59,0.245-6.605,2.8-10.295,2.66    c-3.85,6.81-11.185,11.445-19.029,11.79c0.01,8.46,0,16.92,0.005,25.38c10.905-0.395,21.68-4.82,29.52-12.45    c6.18-5.965,10.575-13.765,12.42-22.16c1.226-5.535,1.22-11.24,1.186-16.88C578.599,293.249,571.553,293.254,564.509,293.249z     M531.854,293.874c0.265,1.695,0.445,3.465,1.35,4.965c1.021,1.976,2.885,3.306,4.811,4.315c0.01-3.095,0-6.195,0.005-9.29    C535.958,293.859,533.904,293.854,531.854,293.874z M544.924,293.864c0.005,3.095-0.015,6.195,0.02,9.295    c3.675-1.6,6.035-5.295,6.155-9.28C549.038,293.849,546.979,293.864,544.924,293.864z M528.884,300.669    c-0.06,2.36-0.28,4.805,0.345,7.11c0.93,2.83,5.075,3.095,6.965,1.125c0.97-1.165,1.025-2.74,1.245-4.165    c-2.85-1.22-5.11-3.475-6.436-6.26C530.114,298.979,528.764,299.389,528.884,300.669z M542.519,305.395    c0,4.109-0.005,8.225,0,12.335c3.484-0.24,6.854-1.311,9.895-3.016c-2.61-3.229-5.22-6.455-7.835-9.68    C543.889,305.149,543.198,305.27,542.519,305.395z M505.293,326.234c3.11,4.31,6.985,8.04,11.365,11.05    c-0.015,9.65-0.035,19.3-0.045,28.95c15.72,0,31.435,0,47.155,0c0.01-7.32,0.02-14.646,0.03-21.965    c-12.245,4.995-26.66,4.064-38.19-2.391c4.885,1.775,10.04,2.74,15.24,2.86c0-6.17,0-12.335,0-18.5    C528.993,326.234,517.144,326.234,505.293,326.234z M289.234,369.52c-2.78,1.399-5.455,3.92-5.3,7.285    c23.635,0.045,47.274,0.04,70.91,0.005c-0.1-4.8-4.89-7.635-8.965-8.845c-17.34-0.1-34.68,0-52.015-0.045    C292.163,367.819,290.714,368.839,289.234,369.52z M510.014,369.779c-2.54,1.465-5.025,3.885-4.795,7.065    c23.645,0.025,47.295,0.035,70.94-0.005c-0.025-4.905-5.07-7.774-9.225-8.905c-17.175-0.065-34.345,0.005-51.521-0.035    C513.434,367.759,511.694,368.884,510.014,369.779z"/>
	</g>
	<path fill="#1D1F73" stroke="#1D1F73" stroke-width="0.0938" stroke-miterlimit="10.43" d="M306.144,79.644   c0.31,0.34,0.615,0.685,0.925,1.03c-0.645,0.855-1.25,1.735-1.81,2.645c1.38,2.79,3.8,4.835,5.785,7.175   c2.34,2.435,4.345,5.26,7.17,7.185c1.005-0.425,1.965-0.945,2.905-1.51c0.225,0.26,0.68,0.785,0.91,1.045   c-3.18,2.855-6.36,5.71-9.54,8.565c-0.31-0.34-0.62-0.68-0.93-1.02c0.63-0.84,1.385-1.645,1.655-2.69   c-0.32-1.26-1.26-2.21-2.075-3.17c-1.895-2.105-3.8-4.195-5.69-6.305c-1.575-1.735-3.065-3.615-5.08-4.875   c-0.98,0.455-1.925,0.985-2.84,1.55c-0.23-0.26-0.685-0.775-0.915-1.035C299.794,85.369,302.969,82.504,306.144,79.644z"/>
	<g>
		<path fill="#1D1F73" stroke="#1D1F73" stroke-width="0.0938" stroke-miterlimit="10.43" d="M551.529,82.779    c8.02-2.21,16.76,4.7,17.06,12.87c0.195,6.045-4.825,11.49-10.675,12.435c-8.425,1.285-16.854-7-15.485-15.46    C543.134,87.904,547.014,84.044,551.529,82.779z M556.493,86.209c-3.15,0.985-5.66,3.365-7.52,6.015    c-1.476,2.16-2.625,4.755-2.33,7.42c0.29,2.825,2.854,5.315,5.755,5.195c2.86-0.115,5.305-1.955,7.229-3.93    c1.931-2.245,3.815-4.74,4.311-7.735c0.4-1.97,0.005-4.19-1.425-5.67C561.024,85.859,558.529,85.554,556.493,86.209z"/>
	</g>
	<path fill="#1D1F73" stroke="#1D1F73" stroke-width="0.0938" stroke-miterlimit="10.43" d="M290.019,94.034   c0.345,0.29,0.695,0.585,1.045,0.875c-0.58,0.945-1.21,1.875-1.545,2.94c0.295,1.11,1.27,1.81,2.095,2.52   c3.17,2.525,6.36,5.025,9.525,7.56c1.05,0.815,2.095,1.71,3.4,2.085c1.16-0.315,1.965-1.265,2.85-2.015   c0.27,0.22,0.8,0.665,1.07,0.885c-2.81,3.37-5.625,6.735-8.439,10.1c-0.265-0.225-0.805-0.67-1.07-0.895   c0.615-0.98,1.185-1.99,1.68-3.035c-1.245-1.8-3.04-3.08-4.72-4.435c-2.925-2.345-5.825-4.725-8.76-7.055   c3.06,6.415,6.17,12.8,9.26,19.2c-0.3,0.345-0.595,0.69-0.89,1.035c-6.315-1.81-12.62-3.65-18.94-5.435   c3.155,2.89,6.3,5.795,9.56,8.565c0.835,0.62,1.65,1.43,2.72,1.59c1.195-0.175,2.03-1.14,2.94-1.84   c0.265,0.225,0.795,0.68,1.06,0.905c-2.13,2.56-4.265,5.115-6.395,7.675c-0.265-0.205-0.795-0.625-1.06-0.835   c0.555-1.155,1.54-2.6,0.465-3.775c-2.865-3.271-6.095-6.205-9.21-9.235c-1.24-1.215-2.54-2.405-4.125-3.155   c-0.96,0.64-1.855,1.365-2.72,2.13c-0.265-0.22-0.795-0.65-1.06-0.87c1.89-2.275,3.78-4.55,5.67-6.83   c5.62,1.455,11.24,2.91,16.86,4.36c-2.51-5.18-5.02-10.355-7.53-15.53C285.839,99.024,287.934,96.529,290.019,94.034z"/>
	<path fill="#1D1F73" stroke="#1D1F73" stroke-width="0.0938" stroke-miterlimit="10.43" d="M433.509,103.239   c2.93-0.495,6.595-1.03,8.845,1.385c1.165,1.19,0.895,2.91,0.525,4.36c-0.865-1.05-1.575-2.34-2.855-2.945   c-1.92-0.93-4.12-0.605-6.16-0.405c-3.64,0.375-6.98,1.98-10.185,3.64C426.219,106.299,429.573,103.874,433.509,103.239z"/>
	<path fill="#1D1F73" stroke="#1D1F73" stroke-width="0.0938" stroke-miterlimit="10.43" d="M573.644,109.459   c3.609-1.275,7.89,1.74,7.56,5.646c0.005,4.479-5.805,7.38-9.33,4.56C568.049,117.144,569.293,110.644,573.644,109.459z"/>
	<path fill="#1D1F73" stroke="#1D1F73" stroke-width="0.0938" stroke-miterlimit="10.43" d="M426.049,112.199   c1.81-2.01,4.85-1.93,7.33-2.365c0.235,0.18,0.7,0.53,0.935,0.71c-1.34,0.385-2.715,0.595-4.085,0.825   c0.205,0.245,0.61,0.73,0.81,0.975c-0.354,0.63-0.645,1.36-1.335,1.7c-0.8-0.035-1.314-0.7-1.87-1.175   C427.123,112.929,426.529,112.704,426.049,112.199z"/>
	<path fill="#1D1F73" stroke="#1D1F73" stroke-width="0.0938" stroke-miterlimit="10.43" d="M423.323,120.229   c1.26-0.38,2.58-0.605,3.885-0.795c0.345,0.265,0.675,0.555,0.99,0.865c-1.72,0.505-3.495,0.75-5.285,0.78   C423.019,120.864,423.224,120.439,423.323,120.229z"/>
	<g>
		<path fill="#1D1F73" stroke="#1D1F73" stroke-width="0.0938" stroke-miterlimit="10.43" d="M591.239,119.684    c0.38-0.26,0.76-0.52,1.15-0.78c2.21,3.345,4.415,6.695,6.63,10.04c1.2,1.895,2.475,3.865,2.74,6.145    c0.58,2.935-2.46,5.865-5.365,5.195c-1.561-0.19-2.84-1.18-4.08-2.055c0.75,1.845,1.35,3.885,0.83,5.88    c-0.851,3.06-4.58,4.915-7.545,3.76c-2.96-1.12-4.891-3.78-6.655-6.265c-2.185-3.235-4.32-6.51-6.485-9.76    c0.38-0.25,0.766-0.5,1.155-0.75c0.76,0.775,1.555,1.52,2.4,2.215c2.935-0.94,5.274-3.04,7.87-4.62    c2.81-1.99,5.97-3.55,8.36-6.065C591.953,121.629,591.609,120.649,591.239,119.684z M588.793,131.929    c0.971,1.3,1.8,2.845,3.311,3.605c2.495,1.27,6.04-0.995,5.67-3.86c-0.07-1.66-1.195-2.975-2.24-4.155    C593.259,128.944,591.033,130.449,588.793,131.929z M580.128,138.749c-0.149,2.455,2.351,4.63,4.755,4.415    c2.305-0.24,4.605-2.08,4.71-4.515c0.055-2.165-1.17-4.021-2.265-5.775C584.899,134.754,581.564,135.879,580.128,138.749z"/>
	</g>
	<path fill="#1D1F73" stroke="#1D1F73" stroke-width="0.0938" stroke-miterlimit="10.43" d="M423.493,124.254   c2.07-0.47,4.135-1.01,6.271-1.075c-1.19,2.17-4.125,3.805-6.275,1.875C423.489,124.854,423.493,124.454,423.493,124.254z"/>
	<path fill="#1D1F73" stroke="#1D1F73" stroke-width="0.0938" stroke-miterlimit="10.43" d="M262.549,129.144   c1.85,0.945,3.7,1.895,5.55,2.845c-0.175,0.33-0.52,0.99-0.69,1.315c-1.545-0.345-3.53-1.285-4.83,0.115   c-1.495,1.555-2.56,3.46-3.52,5.375c2.229,1.65,4.685,2.95,7.035,4.41c1-1.835,2.445-3.51,2.875-5.595   c-0.4-0.8-1.06-1.42-1.645-2.075c0.24-0.415,0.48-0.825,0.72-1.235c2.325,1.41,4.675,2.765,6.955,4.24   c-0.745,1.53-2.255,0.58-3.505,0.63c-1.635,1.325-2.405,3.385-3.55,5.1c2.33,1.32,4.51,3.005,7.085,3.83   c0.93,0.31,1.58-0.53,2.125-1.13c1.115-1.43,2.075-3.035,2.595-4.785c0.525-1.935-1.07-3.485-2.07-4.94   c0.235-0.315,0.7-0.945,0.93-1.255c1.6,1.505,3.2,3.005,4.8,4.51c-3.57,5.905-7.145,11.805-10.71,17.71   c-0.415-0.225-0.825-0.45-1.235-0.675c0.44-1.085,0.835-2.185,1.095-3.325c-1.96-2.085-4.61-3.28-6.985-4.805   c-2.88-1.65-5.585-3.655-8.7-4.85c-1.425-0.695-2.29,1.085-3.145,1.895c-0.3-0.175-0.896-0.535-1.19-0.715   C255.873,140.204,259.214,134.674,262.549,129.144z"/>
	<g>
		<path fill="#1D1F73" stroke="#1D1F73" stroke-width="0.0938" stroke-miterlimit="10.43" d="M587.128,154.279    c0.415-0.21,0.83-0.415,1.25-0.615c0.62,0.69,1.16,1.515,2,1.97c1.261,0.555,2.675,0.42,4.025,0.41    c6.595-0.354,13.19-0.735,19.785-1.085c0.405,0.515,0.82,1.035,1.235,1.55c-4.25,4.81-8.475,9.64-12.735,14.445    c-0.99,1.17-2.14,2.3-2.64,3.78c-0.5,1.39,1.155,3.255-0.75,4.025c-1.88-3.625-3.63-7.31-5.45-10.96    c0.415-0.21,0.83-0.42,1.255-0.625c0.47,0.64,0.945,1.275,1.439,1.905c1.771-0.975,2.965-2.645,4.306-4.11    c-1.075-2.175-2.15-4.35-3.221-6.525c-1.745,0.26-3.54,0.335-5.22,0.92c-0.74,0.89,0.095,2,0.22,2.96    c-0.305,0.145-0.925,0.435-1.234,0.58C589.969,160.029,588.553,157.149,587.128,154.279z M599.753,157.969    c0.875,1.78,1.761,3.555,2.641,5.33c1.859-2.035,3.74-4.06,5.58-6.12C605.229,157.429,602.489,157.709,599.753,157.969z"/>
	</g>
	<g>
		<path fill="#1D1F73" stroke="#1D1F73" stroke-width="0.0938" stroke-miterlimit="10.43" d="M251.368,156.134    c6.175-1.91,13.4,2.68,14.485,9.025c0.705,3.775-0.29,7.63-1.785,11.095c-1.53,3.51-3.135,6.985-4.69,10.48    c-0.32-0.14-0.96-0.425-1.28-0.565c0.215-1.09,0.76-2.215,0.405-3.335c-1.52-1.56-3.705-2.14-5.605-3.09    c-3.52-1.48-6.9-3.325-10.515-4.545c-1.605-0.77-2.48,1.05-3.265,2.08c-0.425-0.195-0.855-0.385-1.28-0.57    c1.72-3.805,3.41-7.625,5.15-11.42C244.729,161.504,247.223,157.554,251.368,156.134z M248.348,162.144    c-2.64,1.405-3.98,4.305-4.78,7.055c4.58,2.51,9.485,4.37,14.2,6.605c1.314,0.53,3.24,1.505,4.295,0.03    c1.635-2.45,2.12-5.835,0.63-8.47c-1.35-2.445-3.855-3.98-6.375-5.005C253.823,161.339,250.839,160.819,248.348,162.144z"/>
	</g>
	<path fill="#1D1F73" stroke="#1D1F73" stroke-width="0.0938" stroke-miterlimit="10.43" d="M306.618,159.314   c2.81-0.585,5.62-1.18,8.43-1.76c0,5.875,0,11.755-0.005,17.63c0.05,0.795-0.065,1.695,0.445,2.375   c0.745,0.275,1.525,0.425,2.3,0.6c-0.005,0.305-0.01,0.915-0.01,1.22c-3.72-0.024-7.44,0.05-11.16-0.045   c0.055-2.025,3.35-0.96,2.96-3.175c-0.005-5.11,0.21-10.245-0.15-15.35c-0.94-0.105-1.89-0.195-2.83-0.275   C306.604,160.229,306.614,159.619,306.618,159.314z"/>
	<path fill="#1D1F73" stroke="#1D1F73" stroke-width="0.0938" stroke-miterlimit="10.43" d="M323.658,157.894   c3.63,0,7.26,0,10.895,0c-0.23,1.325-0.455,2.655-0.68,3.985c-2.925,0-5.85,0-8.774,0c-0.235,1.515-0.46,3.035-0.715,4.55   c2.26-0.83,4.805-1.275,7.11-0.35c2.65,0.9,4.405,3.855,3.83,6.61c-0.49,2.845-2.85,4.945-5.405,6.035   c-2.585,1.385-5.885,1.22-8.359-0.32c-1.3-1.065,0.104-3.025,1.345-3.485c1.74,0.71,2.985,2.51,4.965,2.64   c1.335,0.065,2.16-1.275,2.32-2.45c0.325-2.06-0.03-4.65-1.975-5.815c-1.8-1.135-4.02-0.56-5.96-0.22   C322.739,165.349,323.189,161.619,323.658,157.894z"/>
	<path fill="#1D1F73" stroke="#1D1F73" stroke-width="0.0938" stroke-miterlimit="10.43" d="M543.854,157.889   c3.62,0.01,7.235,0.005,10.854,0.005c-0.229,1.325-0.455,2.655-0.675,3.985c-2.93,0-5.855-0.005-8.78,0   c-0.234,1.515-0.465,3.03-0.71,4.545c2.641-1.015,5.79-1.33,8.29,0.225c2.766,1.67,3.585,5.604,1.825,8.29   c-2.675,4.229-9.135,6.399-13.34,3.12c-0.375-1.335,0.61-2.905,1.995-3.09c1.564,0.81,2.79,2.375,4.63,2.59   c1.35,0.135,2.215-1.185,2.415-2.365c0.38-2.13-0.015-4.81-2.07-5.965c-1.795-1.055-3.96-0.48-5.865-0.155   C542.948,165.349,543.359,161.614,543.854,157.889z"/>
	<path fill="#1D1F73" stroke="#1D1F73" stroke-width="0.0938" stroke-miterlimit="10.43" d="M525.019,157.939   c5.075,0.064,10.155-0.135,15.225,0.11c-3.205,7.095-6.53,14.13-9.495,21.33c-1.76,0.141-3.515,0.295-5.28,0.365   c1.07-2.2,2.5-4.19,3.79-6.26c2.415-3.69,4.475-7.595,6.695-11.4c-2.85,0.07-5.71-0.165-8.55,0.13   c-1.01,0.105-1.27,1.275-1.8,1.955c-0.355,0.01-1.061,0.025-1.41,0.03C524.464,162.114,524.743,160.029,525.019,157.939z"/>
	<path fill="#1D1F73" stroke="#1D1F73" stroke-width="0.0938" stroke-miterlimit="10.43" d="M615.354,172.654   c2.41-0.715,4.814-1.445,7.235-2.13c-0.06,1.205-0.26,2.455,0.24,3.604c1.811,4.9,3.635,9.805,5.46,14.7   c0.375,1.155,1.315,1.955,2.125,2.805c-2.265,1.01-4.524,2.02-6.79,3.025c-0.205-0.465-0.41-0.92-0.609-1.375   c1.215-0.995,3.125-1.83,3.095-3.655c-0.03-1.745-0.785-3.37-1.3-5.005c-5.095,1.87-10.175,3.79-15.275,5.646   c-1.04,0.41-2.165,0.79-2.91,1.66c-0.445,1.19,0.085,2.44,0.29,3.625c-0.335,0.11-1.005,0.33-1.34,0.44   c-1.555-4.225-3.14-8.44-4.69-12.665c0.325-0.12,0.97-0.365,1.295-0.485c0.565,1.005,1.18,1.985,1.87,2.915   c1.37-0.13,2.715-0.445,4-0.94c4.9-1.83,9.815-3.625,14.71-5.465c-0.735-1.59-1.275-3.325-2.395-4.695   c-1.26-1.095-3.085-0.625-4.6-0.675C615.658,173.654,615.458,172.984,615.354,172.654z"/>
	<path fill="#1D1F73" stroke="#1D1F73" stroke-width="0.0938" stroke-miterlimit="10.43" d="M380.833,186.02   c0.655-2,1.936-3.715,3.495-5.105c0.375,0.155,1.125,0.47,1.5,0.63c-1.615,3.726-3.135,8.47-0.485,12.105   c2.295,2.979,6.63,2.26,9.85,1.62c-0.78,3.595-2.725,6.805-4.965,9.675c-1.29,1.53-2.86,3.045-4.905,3.425   c-1.625,0.33-3.245-0.685-4.045-2.06c-1.4-2.295-1.73-5.04-1.9-7.67C379.224,194.395,379.519,190.079,380.833,186.02z"/>
	<g>
		<path fill="#1D1F73" stroke="#1D1F73" stroke-width="0.0938" stroke-miterlimit="10.43" d="M256.634,190.254    c0.435,0.146,0.87,0.285,1.305,0.436c-1.16,3.825-2.32,7.649-3.475,11.475c-0.33-0.095-0.985-0.29-1.315-0.39    c0.025-0.795,0.1-1.59,0.01-2.38c-1.89-0.585-3.885-0.07-5.81,0.03c-0.705,2.32-1.41,4.645-2.11,6.97    c1.545,1.115,3.065,2.29,4.8,3.104c0.56-0.8,1.065-1.635,1.545-2.485c0.315,0.105,0.95,0.31,1.265,0.415    c-0.955,3.065-1.875,6.135-2.815,9.2c-0.435-0.135-0.87-0.265-1.305-0.395c-0.025-1.16,0.3-2.475-0.445-3.48    c-0.725-1.08-1.74-1.91-2.705-2.76c-4.925-4.13-9.84-8.275-14.76-12.41c0.05-0.675,0.1-1.345,0.15-2.015    c6.815-0.635,13.635-1.255,20.45-1.89c1.3-0.175,2.755-0.25,3.795-1.16C255.809,191.849,256.194,191.029,256.634,190.254z     M236.864,200.229c2.17,1.715,4.36,3.399,6.545,5.1c0.58-1.9,1.16-3.8,1.735-5.7C242.384,199.824,239.623,200.014,236.864,200.229    z"/>
	</g>
	<path fill="#1D1F73" stroke="#1D1F73" stroke-width="0.0938" stroke-miterlimit="10.43" d="M458.658,202.544   c2.15-2.725,5.975-3.46,9.27-3.215c2.15,0.085,4.19,1.11,5.55,2.775c1.185,1.25,2.455,3.229,1.215,4.87   c-1.08,1.305-2.945,0.4-4.305,0.135c-0.596-1.695-0.865-3.845-2.69-4.69C464.849,200.804,461.618,202.039,458.658,202.544z"/>
	<g>
		<path fill="#1D1F73" stroke="#1D1F73" stroke-width="0.0938" stroke-miterlimit="10.43" d="M607.498,201.009    c1.83-0.58,1.93,1.685,3.16,2.415c1.1,0.675,2.42,0.835,3.67,1.07c6.505,0.985,13.01,1.965,19.521,2.94    c0.305,0.6,0.604,1.195,0.925,1.8c-4.64,3.46-9.275,6.92-13.915,10.375c-1.585,1.235-3.37,2.285-4.64,3.87    c-0.87,1.03-0.555,2.439-0.565,3.67c-0.335,0.085-1.005,0.25-1.335,0.335c-1.01-3.88-2.015-7.755-3.02-11.635    c0.33-0.085,0.99-0.26,1.315-0.345c0.395,0.74,0.81,1.48,1.235,2.215c1.765-0.875,3.34-2.055,4.92-3.215    c-0.61-2.359-1.215-4.72-1.84-7.07c-1.925-0.125-3.87-0.375-5.785-0.035c0.015,0.939,0.07,1.88,0.135,2.825    c-0.46,0.11-0.915,0.225-1.365,0.34C609.109,207.379,608.253,204.204,607.498,201.009z M619.099,207.409    c0.49,1.925,0.984,3.855,1.484,5.78c2.25-1.615,4.516-3.21,6.745-4.855C624.589,208.004,621.844,207.714,619.099,207.409z"/>
	</g>
	<path fill="#1D1F73" stroke="#1D1F73" stroke-width="0.0938" stroke-miterlimit="10.43" d="M459.948,216.214   c0.075-2.64-1.01-5.314-0.33-7.899c1.225,4.78,2.385,9.715,5.21,13.86c1.325,2.17,3.605,4.235,2.995,7.045   c-0.005,1.505-1.625,1.985-2.585,2.81c-1.1,0.72-1.555,2.01-2.04,3.165c-1.51,0.59-3.035,1.135-4.57,1.655   c0.09,0.2,0.27,0.6,0.36,0.8c-3.82,0.229-7.6,0.755-11.345,1.53c0.66-1.565,1.08-3.205,1.49-4.845c2.03-0.84,4.39-1.34,5.805-3.175   c1.475-1.65,1.71-3.935,1.965-6.03C460.198,223.554,460.009,219.309,459.948,216.214z"/>
	<path fill="#1D1F73" stroke="#1D1F73" stroke-width="0.0938" stroke-miterlimit="10.43" d="M225.544,235.954   c-3.53-5.795-2.13-13.12,0.61-18.935c2.19,0.155,4.38,0.31,6.57,0.47c-0.03,0.38-0.085,1.145-0.115,1.53   c-1.94,0.365-4.085,0.77-5.425,2.365c-2.345,2.88-2.445,7.525,0.104,10.315c2.275,2.545,5.81,3.505,9.11,3.665   c3.085,0.135,6.46-0.785,8.43-3.305c2.22-2.705,2.225-7.035-0.33-9.525c-0.99-1.34-3.25-2.07-2.68-4.105   c2.3,0.925,4.515,2.045,6.695,3.23c0.235,5.98-0.295,12.865-5.025,17.145C238.314,243.639,229.064,241.994,225.544,235.954z"/>
	<path fill="#1D1F73" stroke="#1D1F73" stroke-width="0.0938" stroke-miterlimit="10.43" d="M403.514,218.794   c5.515-1.965,11.649-0.649,16.38,2.61c-1.29,3.67,0.439,7.99,3.625,10.11c1.96,1.37,4.34,1.915,6.66,2.34   c0.455,3.445,2.12,6.92,5.445,8.405c-1.575,0.365-3.145,1.33-4.795,0.865c-2.685-0.46-4.955-2.18-6.495-4.375   c-3.13-0.03-6.225-1.43-8.05-4.02c-2.445-3.51-2.565-8.005-2.395-12.125c-2.74-1.896-6.075-2.665-9.37-2.715   C404.184,219.52,403.849,219.154,403.514,218.794z"/>
	<path fill="#1D1F73" stroke="#1D1F73" stroke-width="0.0938" stroke-miterlimit="10.43" d="M635.764,220.954   c0.45-0.065,0.904-0.125,1.364-0.185c0.625,4.03,1.255,8.064,1.891,12.1c-0.47,0.07-0.93,0.145-1.391,0.22   c-0.325-0.859-0.665-1.715-1.024-2.555c-4.83,2.325-9.14,5.595-13.755,8.315c4.33,0.875,8.649,1.79,12.984,2.665   c0.811,0.075,1.985,0.53,2.55-0.335c0.13-0.775,0.165-1.555,0.23-2.33c0.335-0.035,1.01-0.11,1.345-0.15   c0.505,3.215,1.016,6.425,1.525,9.635c-0.45,0.085-0.9,0.17-1.345,0.26c-0.44-0.915-0.766-1.935-1.521-2.645   c-1.095-0.85-2.435-1.3-3.735-1.725c-6.37-1.89-12.84-3.42-19.27-5.065c-0.115-0.685-0.22-1.36-0.32-2.04   c5.226-3.295,10.445-6.605,15.681-9.895c1.305-0.845,2.7-1.595,3.814-2.695C635.774,223.614,635.618,222.164,635.764,220.954z"/>
	<path fill="#1D1F73" stroke="#1D1F73" stroke-width="0.0938" stroke-miterlimit="10.43" d="M506.253,241.599   c0.675-0.005,1.351-0.005,2.03,0c0,1.43,0,2.86,0,4.295c-0.68-0.005-1.355-0.005-2.03-0.005   C506.248,244.459,506.248,243.029,506.253,241.599z"/>
	<path fill="#1D1F73" stroke="#1D1F73" stroke-width="0.0938" stroke-miterlimit="10.43" d="M530.439,242.02   c0.675-0.005,1.35-0.005,2.03,0c0,1.43,0,2.859,0,4.295c-0.68,0-1.355,0-2.03,0C530.439,244.879,530.439,243.449,530.439,242.02z"/>
	<g>
		<path fill="#1D1F73" stroke="#1D1F73" stroke-width="0.0938" stroke-miterlimit="10.43" d="M443.434,245.164    c6.76-1.8,13.79-2.69,20.78-2.22c0.435,1.54,1.63,2.61,2.9,3.485c-1.58,0.98-2.945,2.245-4.125,3.685    c-1.485-2.59-3.995-4.845-7.16-4.74c-3.39-0.31-5.814,2.585-7.189,5.32c-2.615-0.775-5.58-1.23-8.105,0.09    c-2.755,1.35-4.04,4.475-4.43,7.36c-0.725,6.265,1.625,12.365,4.479,17.819c-2.64,7.205-4.285,15.085-2.609,22.71    c1.185,5.88,4.17,11.15,7.01,16.36c2.695,4.825,4.395,10.115,6.125,15.345c2.1,6.005,3.675,12.175,5.69,18.205    c0.36-4.685-0.55-9.32-1.045-13.96c-0.78-5.229-1.855-10.435-3.46-15.475c-1.795-5.646-5.165-10.61-7.075-16.21    c-2.29-6.095-2.99-12.93-1.045-19.22c1.755-5.445,4.07-10.725,5.385-16.31c0.575-1.97-0.51-4.145-2.17-5.225    c-0.771-0.565-2.04-0.48-2.505,0.43c-1.035,1.965-1.26,4.23-1.91,6.33c-1.175-3.135-2.351-6.37-2.345-9.765    c0.045-1.545,0.565-3.53,2.285-3.95c1.9-0.436,4.055,0.02,5.54,1.314c2.44,1.945,3.686,4.905,4.94,7.665    c1.395,3.295,0.38,6.93-0.735,10.146c-0.48,1.495-1.245,3.29-0.19,4.725c1.34,1.775,3.455,2.725,5.365,3.76    c-1.88,4.476-3.399,9.455-2.375,14.33c1,4.67,7.11,6.98,11.11,4.655c1.79-0.875,1.01-3.1,1.12-4.66    c-0.105-5.065,3.9-9.06,4.17-14.04c-0.36-2.07-1.06-4.08-1.1-6.2c-0.91-0.275-1.815-0.55-2.715-0.84    c0.04,0.995,0.17,3.535-1.46,2.885c-0.935-0.935-0.56-2.315-0.205-3.415c-0.705-0.44-2.939-1.44-1.14-2.015    c1.965,0.645,3.88,1.445,5.875,2.01c0.4-1.585,0.82-3.29,0.125-4.86c-0.45-1.63-2.285-2.71-2.02-4.535    c0.58-3.93,3.105-7.73,6.905-9.16c0.695-0.21,1.665-0.55,2.141,0.235c1.835,2.47,1.479,5.78,1.13,8.66    c-0.771-1.765-0.96-4.44-3.19-4.99c-2.325-0.69-4.41,2.035-3.314,4.155c2.55,6.71,4.555,13.605,6.604,20.485    c1.82,7.1-0.575,14.26-2.755,20.98c-1.475,4.189-2.595,8.484-3.68,12.785c-1.88,9.31-3.755,18.85-2.59,28.375    c1.755-10.865,3.995-21.675,7.31-32.18c1.355-4.165,3.215-8.14,4.605-12.295c-0.71,15.07-2.235,30.125-5.355,44.9    c-1.11,4.87-2.185,9.814-4.385,14.335c-2.101,4.535-5.11,8.604-8.655,12.115c-7.32-4.62-13.78-10.62-18.905-17.595    c-5.99-8.58-10.305-18.405-12.05-28.75c-2.42-13.71-2.215-27.689-2.595-41.555c-0.146-12.82-0.195-25.7,1.595-38.42    C435.754,246.934,439.623,246.149,443.434,245.164z M445.908,284.614c-0.21,2.675,0.325,5.34,0.195,8.02    c-0.11,4.245,0.34,8.825,2.979,12.32c2.835,3.775,7.431,5.535,11.601,7.4c-1.51,2.694-2.875,5.649-2.811,8.805    c0.21,3.955,2.04,7.555,3.851,10.995c-1.385-5.865-2.056-13.02,2.295-17.84c2.46-3.68,6.245-6.135,8.995-9.555    c2.035-2.42,2.475-5.65,3.279-8.6c0.585-2.52,1.46-4.98,1.745-7.56c0.15-2.545-0.335-5.52-2.645-7.015    c-0.385,0.59-0.84,1.155-1.095,1.825c-1.85,5.765-1.2,12.165-4,17.645c-1.555,3.19-4.61,5.185-6.905,7.785    c-3.54-1.955-7.83-3.024-10.37-6.39c-2.405-3.41-2.41-7.81-2.56-11.815c0.165-3.71-0.37-7.475-2.08-10.8    C447.134,281.139,446.083,282.774,445.908,284.614z M465.123,315.145c3.445,4.64,2.28,10.75,1.625,16.069    c1.135-2.395,2.23-4.835,2.755-7.45c0.96-3.845,0.431-8.07-1.87-11.35C466.764,313.294,465.918,314.194,465.123,315.145z"/>
	</g>
	<path fill="#1D1F73" stroke="#1D1F73" stroke-width="0.0938" stroke-miterlimit="10.43" d="M561.583,244.569   c0.88,0.95,1.766,1.9,2.65,2.855c0.715-0.845,1.425-1.695,2.14-2.535c0.125,1.015,0.26,2.04,0.396,3.065   c1.325-0.645,2.649-1.29,3.979-1.93c-0.54,1.115-1.085,2.235-1.625,3.354c-2.49-0.505-4.975-1.005-7.46-1.5   C561.634,246.774,561.604,245.669,561.583,244.569z"/>
	<g>
		<path fill="#1D1F73" stroke="#1D1F73" stroke-width="0.0938" stroke-miterlimit="10.43" d="M243.149,246.054    c0.345,0.03,1.035,0.08,1.385,0.105c-0.295,3.995-0.605,7.985-0.9,11.975c-0.48-0.025-0.96-0.05-1.445-0.075    c-0.105-0.825-0.215-1.645-0.35-2.465c-1.99,0.125-3.88,0.78-5.76,1.39c-0.18,2.42-0.36,4.845-0.545,7.265    c1.605,0.635,3.145,1.505,4.85,1.835c1.25-0.075,1.01-1.765,1.415-2.61c0.345,0.03,1.045,0.085,1.39,0.11    c-0.245,3.19-0.485,6.385-0.735,9.575c-0.34-0.005-1.03-0.025-1.375-0.03c-0.255-1.165-0.27-2.54-1.25-3.37    c-0.985-0.92-2.21-1.525-3.38-2.16c-5.645-2.915-11.27-5.86-16.92-8.77c-0.09-0.67-0.185-1.335-0.275-2    c6.39-2.045,12.77-4.11,19.165-6.145c1.17-0.415,2.42-0.785,3.375-1.615C242.658,248.309,242.794,247.084,243.149,246.054z     M226.044,260.069c2.48,1.195,4.98,2.355,7.475,3.53c0.15-1.985,0.305-3.965,0.455-5.94    C231.328,258.464,228.678,259.239,226.044,260.069z"/>
	</g>
	<path fill="#1D1F73" stroke="#1D1F73" stroke-width="0.0938" stroke-miterlimit="10.43" d="M473.234,247.895   c1.46-0.175,2.9-0.516,4.27-1.061c2.57,1.8,4.53,4.465,4.825,7.655c-1.985-1.73-4.689-2.26-7.235-1.665   C474.684,251.104,474.083,249.439,473.234,247.895z"/>
	<path fill="#1D1F73" stroke="#1D1F73" stroke-width="0.0938" stroke-miterlimit="10.43" d="M511.069,250.004   c-0.995-0.774-0.74-3.189,0.79-2.8c1.41,0.155,0.48,1.745,0.475,2.605c1.181,0.495,2.385,0.9,3.601,1.305   C514.303,250.929,512.428,251.079,511.069,250.004z"/>
	<g>
		<path fill="#1D1F73" stroke="#1D1F73" stroke-width="0.0938" stroke-miterlimit="10.43" d="M311.399,249.27    c2.475-0.646,4.925-1.595,7.525-1.545c1.215-0.14,2.025,0.9,2.89,1.555c1.205,1.095,2.94,1.325,4.165,2.38    c0.075,0.985-0.045,1.97-0.125,2.955c-1.665,0.375-3.415,0.41-5.035,0.96c-1.56,1.18-1.915,3.265-2.345,5.045    c2.245-0.29,4.395-1.35,6.685-1.235c0.785,0.865,0.77,2.2,0.155,3.16c-1.53,0.425-3.585-0.125-4.625,1.39    c-0.79,0.755-0.36,1.95,0.235,2.68c1.555,1.87,4.345,2.605,6.605,1.64c2.86-1.125,4.55-3.845,6.08-6.345    c0.93,2.075,1.16,4.35,1.07,6.6c4.005-3.335,8.02-6.655,12.035-9.975c0.02-2.165-0.035-4.465,1.075-6.405    c0.625-1.234,1.74-2.09,2.78-2.95c-0.535,1.425-0.945,2.91-0.99,4.445c1.695-1.085,3.465-2.09,5.46-2.515    c-1.13,1.495-2.305,2.97-3.29,4.57c1.936-0.385,3.905-0.725,5.885-0.46c-1.585,1.24-4.315,1.715-4.81,3.895    c1.54,0.845,3.34,0.71,5.035,0.72c-1.325,2.28-3.98,2.91-6.45,2.705c-2.63,3.37-5.555,6.52-8.81,9.3    c-1.365,1.205-3.021,2.056-4.311,3.355c-0.55,1.29,0.95,2.195,2.045,2.35c2.681,0.48,5.025-1.215,6.915-2.885    c0.385,1.89,0.641,4.085-0.715,5.675c-2.155,2.535-5.725,2.755-8.795,3.075c3.525,3.495,6.78,7.24,10.115,10.905    c0.955-1.23,1.76-2.936,3.515-3.115c2.405-0.565,4.705,0.8,6.11,2.67c-1.7,0.055-3.4,0.155-5.085,0.365    c1.96,1.185,4.43,2.535,4.12,5.25c-1.3-1.055-2.715-1.985-4.32-2.495c0.255,2.135,0.485,4.655-1.325,6.225    c-0.62-1.649-1.285-4.165-3.479-4.13c-1.87-0.125-2.525,1.89-2.91,3.33c-0.7-1.17-1.25-2.435-1.33-3.81    c-0.22-0.891-0.07-2.186-1.11-2.561c-1.2-0.545-2.49-0.854-3.705-1.35c-4.545-1.73-8.34-4.915-11.72-8.33    c-3.375,1.665-7,2.72-10.715,3.28c-0.835-0.016-0.885,0.984-1.225,1.515c1.875,0.405,3.81,0.47,5.685,0.905    c3.825,0.695,7.29,2.95,9.64,6.024c0.905,1.085,1.705,2.38,3.055,2.965c1.44,0.635,3.05,0.635,4.59,0.84    c-0.95,3.55-4.8,4.625-8.05,4.7c2.66,1.955,5.17,4.095,7.765,6.135c0.565,0.325,1.315,1.1,1.98,0.524    c2.135-1.195,4.37-2.91,6.96-2.515c1.52,0.24,2.315,1.685,3.025,2.89c-1.565-0.104-3.145-0.104-4.695,0.186    c1.545,1.965,2.82,4.25,2.755,6.83c-1.275-1.101-2.62-2.37-4.44-2.25c0.05,1.09,0.25,2.185,0.14,3.285    c-0.38,0.63-0.895,1.17-1.375,1.725c-0.385-1.105-0.439-2.415-1.3-3.285c-0.655-0.465-1.435-0.685-2.17-0.98    c-0.295,1.655-1.34,2.97-2.975,3.46c0.2-1.715,0.92-3.66-0.125-5.24c-0.825-1.186-2.436-1.165-3.705-1.475    c-4.561-0.975-9.32-1.865-13.275-4.49c-1.425-0.925-2.555-2.221-3.355-3.71c1.45-0.625,2.925-1.18,4.41-1.695    c-4-3.225-8.3-6.525-10.56-11.275c-0.305,0.03-0.915,0.085-1.22,0.11c2.955,3.865,1.649,8.88,1.795,13.345    c0.025,2.19,1.635,3.83,3.3,5.03c-1.78,0.125-3.645,0.355-5.355-0.31c-2.02-0.685-3.575-2.21-5.045-3.68    c0.425,3.835,0.56,8.271,3.52,11.15c2.415,2.52,6.425,0.87,9.095,2.939c1.95,1.245,2.355,3.681,2.585,5.8    c-1.42-1.3-2.97-2.54-4.915-2.915c0.685,1.51,1.34,3.075,1.185,4.775c-1.22-1.185-2.45-2.415-4.06-3.055    c0.24,1.36,0.4,2.74,0.205,4.125c-1.075-1.855-1.995-3.815-3.465-5.405c-2.06,0.875-2.385,3.225-2.57,5.19    c-0.85-0.735-2.205-1.33-2.14-2.65c0-1.79,1.46-3.03,2.6-4.205c-5.02-3.17-10.42-6.305-13.665-11.46    c-1.845-2.835-2.4-6.3-2.075-9.625c1.385,0.615,3.025,1.64,4.56,0.885c1.325-0.625,1.73-2.25,1.48-3.59    c-0.485-2.46-2.02-4.57-3.83-6.245c1.76-0.72,3.7-1.104,5.29-2.18c0.295-0.9,0.38-1.85,0.56-2.77c-2.955-0.1-6.275-0.71-8.16-3.22    c-2.01-2.87-1.45-6.755-0.015-9.745c2.39-4.865,6.135-8.89,8.88-13.535c1.095-2.22,2.26-4.905,1.325-7.365    c-0.95-1.995-3.39-2.015-5.285-1.93c0.435,1.97,0.195,4.11-1.085,5.73c-1.635,2.705-4.86,3.815-6.665,6.36    c-0.815,1.1-1.08,2.47-1.4,3.774c-0.61-5.064-1.899-10.505,0.271-15.375c0.765-1.875,2.015-3.835,4.06-4.439    c1.415-0.455,2.7,0.475,3.82,1.2c2.5-0.15,5.335-0.205,7.33,1.57c2.34,1.905,2.58,5.315,1.705,8.021    c-2.045,6.78-7.865,11.47-10.665,17.87c-0.71,1.83-1.21,4.04-0.305,5.885c1.585,1.899,4.295,2.465,6.665,2.354    c0.77,0.01,1.295-0.635,1.885-1.03c2.76-2.305,5.69-4.435,8.86-6.145c1.775-0.98,4.25-1.365,4.855-3.61    c-2.795-0.29-5.68,0.51-8.41-0.425c-1.42-0.385-2.495-1.425-3.46-2.475c3.235-1.27,6.985-2.635,8.34-6.175    c-2.34,1.045-5.035,1.569-7.44,0.399c2.18-2.05,4.905-4.21,5.165-7.42c-0.31-3.16-1.905-6.635,0.09-9.57    c-0.94-0.64-1.93-1.195-2.945-1.7c1.245-0.5,2.58-1.425,3.975-0.9C309.069,248.424,310.073,249.634,311.399,249.27z     M315.428,250.789c0.525,0.105,1.58,0.315,2.11,0.42c0.11,0.87,0.12,2.061,1.255,2.2c0.85-0.31,1.01-1.21,1.305-1.945    c0.38-0.225,1.135-0.675,1.515-0.899C319.618,250.014,317.359,249.989,315.428,250.789z"/>
	</g>
	<g>
		<path fill="#1D1F73" stroke="#1D1F73" stroke-width="0.0938" stroke-miterlimit="10.43" d="M617.698,248.369    c2.02-0.2,1.575,2.27,2.865,3.13c1,0.775,2.229,1.165,3.405,1.615c6.16,2.145,12.315,4.3,18.475,6.455    c0.175,0.635,0.355,1.275,0.54,1.915c-6.1,2.995-12.2,5.985-18.305,8.97c-1.17,0.63-2.49,1.215-3.205,2.4    c-0.41,0.845-0.44,1.81-0.605,2.729c-0.345,0.021-1.035,0.061-1.38,0.08c-0.255-4.09-0.58-8.18-0.78-12.27    c1.615-0.19,1.705,1.41,2.155,2.515c1.91-0.465,3.665-1.375,5.425-2.235c-0.16-2.42-0.32-4.845-0.47-7.265    c-1.86-0.375-3.69-1.24-5.615-1.005c-0.335,0.88-0.385,1.83-0.51,2.755c-0.345,0.005-1.035,0.015-1.375,0.02    C618.109,254.909,617.839,251.645,617.698,248.369z M627.908,256.834c0.125,1.975,0.26,3.955,0.39,5.936    c2.495-1.175,5.005-2.33,7.49-3.535C633.163,258.414,630.533,257.629,627.908,256.834z"/>
	</g>
	<path fill="#1D1F73" stroke="#1D1F73" stroke-width="0.0938" stroke-miterlimit="10.43" d="M332.844,250.174   c0.99-0.995,2.96-0.985,3.735,0.27c0.995,1.7,0.485,4.11-1.18,5.21c-2.7,1.895-6.195,1.52-9.315,1.47   c2.205-0.725,4.72-0.729,6.675-2.085C334.504,253.729,331.689,251.754,332.844,250.174z"/>
	<path fill="#1D1F73" stroke="#1D1F73" stroke-width="0.0938" stroke-miterlimit="10.43" d="M452.788,253.549   c1.061-1.345,2.5-2.27,4.015-3.02c0.995,0.755,2.06,1.555,2.505,2.78c1.314,3.24,1.24,6.8,1.24,10.235   c-0.365,0.055-1.1,0.165-1.465,0.22C457.493,260.069,455.594,256.474,452.788,253.549z"/>
	<path fill="#1D1F73" stroke="#1D1F73" stroke-width="0.0938" stroke-miterlimit="10.43" d="M465.859,253.799   c0.455-1.685,2.075-2.495,3.655-2.82c0.92,1.32,1.02,2.925,0.955,4.49c-2.195,2.205-3.565,5.015-4.575,7.925   c-0.396-0.03-1.195-0.085-1.59-0.115C464.828,260.124,464.864,256.859,465.859,253.799z"/>
	<path fill="#1D1F73" stroke="#1D1F73" stroke-width="0.0938" stroke-miterlimit="10.43" d="M500.908,258.439c0.675,0,1.35,0,2.03,0   c0,1.43,0,2.865,0,4.3c-0.68-0.005-1.355-0.005-2.03-0.005C500.904,261.304,500.904,259.869,500.908,258.439z"/>
	<path fill="#1D1F73" stroke="#1D1F73" stroke-width="0.0938" stroke-miterlimit="10.43" d="M481.779,274.609   c0.2-1.625,0.925-3.135,1.395-4.69c-0.02,3.32-0.03,6.646-0.045,9.965C482.678,278.124,482.083,276.395,481.779,274.609z"/>
	<path fill="#1D1F73" stroke="#1D1F73" stroke-width="0.0938" stroke-miterlimit="10.43" d="M420.114,273.395   c2.05,0.194,4.1,0.395,6.155,0.595c-0.101,13.75-0.115,27.52,0.895,41.24c0.88,10.28,2.585,20.67,6.98,30.09   c3.475,7.82,8.25,15.16,14.625,20.93c2.115,2.135,4.705,3.725,6.74,5.94c-1.39,1.12-3,1.92-4.725,2.37   c-4.705,1.34-9.6,1.81-14.445,2.35c-0.725-0.025-1.26,0.475-1.77,0.915c-4.045,3.65-9.16,5.775-14.165,7.745   c-3.165,0.865-6.75,0.69-9.715-0.775c2.74-0.215,5.66,0.15,8.17-1.215c1.885-0.965,4.175-2.15,4.575-4.45   c0.22-1.024-0.78-1.71-1.58-2.055c-2.83-1.105-5.955-0.475-8.875-1.075c-2.605-0.96-5.08-2.245-7.64-3.31   c-27.145,7.2-54.295,14.395-81.445,21.595c-0.655,1.83-1.315,3.665-1.97,5.5c-12.065,1.13-24.125,2.37-36.195,3.43   c10.84-4.609,21.74-9.09,32.604-13.649c1.625,0.965,3.25,1.935,4.885,2.895c26.68-6.91,53.365-13.8,80.045-20.705   c-1.771-0.814-3.561-1.609-5.181-2.7c3.69-0.755,7.825-0.155,10.851,2.2c4.685-0.325,9.295,0.715,13.965,0.815   c0.325-1.44,0.585-2.896,0.665-4.365c0.854-12.45,0.79-24.94,0.71-37.415c-0.14-9.395-0.26-18.795-0.97-28.165   c-0.14-1.915-0.195-3.9-1.055-5.655c-0.774,2.495-0.609,5.115-0.635,7.69c-0.085,6.5,0.37,13.01-0.02,19.505   c-0.245,2.31-0.345,4.745-1.53,6.81c-1.26-2.745-1.155-5.835-1.25-8.785C419.239,305.589,419.684,289.494,420.114,273.395z"/>
	<path fill="#1D1F73" stroke="#1D1F73" stroke-width="0.0938" stroke-miterlimit="10.43" d="M455.064,276.309   c2.54-0.655,5-1.55,7.29-2.845c1.495,0.681-0.66,1.855-1.355,2.335c0.26,1.3,0.525,3.39-1.155,3.79   c-0.97-0.655-0.87-1.93-1.125-2.93c-1.265,0.385-2.54,0.735-3.845,0.96C454.918,277.294,455.014,276.639,455.064,276.309z"/>
	<path fill="#1D1F73" stroke="#1D1F73" stroke-width="0.0938" stroke-miterlimit="10.43" d="M228.533,280.239   c3.92-1.035,8.115,2.945,6.9,6.925c-0.885,4.575-7.54,5.995-10.275,2.26C222.348,286.324,224.444,280.844,228.533,280.239z"/>
	<path fill="#1D1F73" stroke="#1D1F73" stroke-width="0.0938" stroke-miterlimit="10.43" d="M499.094,279.895   c0.505,0,1.515,0,2.02,0c-0.005,1.435-0.005,2.875,0,4.31c-0.505,0-1.515,0-2.02,0   C499.094,282.764,499.094,281.329,499.094,279.895z"/>
	<path fill="#1D1F73" stroke="#1D1F73" stroke-width="0.0938" stroke-miterlimit="10.43" d="M630.014,280.77   c3.47-1.49,7.87,1.155,8.024,4.965c0.4,3.745-3.55,6.945-7.14,5.975c-3.146-0.525-5.37-4.07-4.355-7.12   C626.993,282.854,628.364,281.429,630.014,280.77z"/>
	<path fill="#1D1F73" stroke="#1D1F73" stroke-width="0.0938" stroke-miterlimit="10.43" d="M462.104,282.064   c0.705,0.02,1.405,0.064,2.11,0.115c1.045-0.26,2.59-0.515,2.695,0.995c-0.93,0.075-1.845,0.17-2.765,0.275   c-0.745-0.12-1.49-0.195-2.23-0.255C461.958,282.909,462.053,282.344,462.104,282.064z"/>
	<path fill="#1D1F73" stroke="#1D1F73" stroke-width="0.0938" stroke-miterlimit="10.43" d="M514.064,285.314   c0.675-0.005,1.35-0.005,2.035,0c-0.005,1.43-0.005,2.865,0,4.3c-0.686-0.005-1.36-0.005-2.035,0   C514.064,288.179,514.064,286.744,514.064,285.314z"/>
	<path fill="#1D1F73" stroke="#1D1F73" stroke-width="0.0938" stroke-miterlimit="10.43" d="M461.779,287.164   c0.645-1.435,2.7-1.735,3.79-0.645c0.635,0.715,0.755,1.74,0.62,2.66c-0.265,1.975-0.49,3.96-0.7,5.945   c-1.71-0.05-3.415-0.005-5.115,0.15C460.754,292.574,460.538,289.664,461.779,287.164z"/>
	<path fill="#1D1F73" stroke="#1D1F73" stroke-width="0.0938" stroke-miterlimit="10.43" d="M241.314,299.109   c0.355-0.045,1.055-0.125,1.41-0.17c0.575,4.345,1.155,8.695,1.73,13.04c-0.345,0.05-1.04,0.145-1.385,0.194   c-0.355-1.109-0.47-2.395-1.335-3.25c-1.215-0.41-2.5-0.075-3.73,0.061c-4.57,0.7-9.15,1.33-13.71,2.064   c6.815,2.09,13.655,4.085,20.48,6.146c0.035,0.335,0.11,1.005,0.145,1.345c-5.605,3.43-11.235,6.83-16.825,10.29   c4.1-0.36,8.205-0.715,12.295-1.185c1.1-0.165,2.24-0.295,3.255-0.79c1.005-0.925,0.705-2.44,0.885-3.655   c0.34-0.03,1.025-0.09,1.365-0.12c0.43,3.3,0.865,6.605,1.295,9.91c-0.34,0.04-1.015,0.13-1.355,0.175   c-0.465-1.175-0.865-2.925-2.46-2.875c-4.5-0.105-8.995,0.28-13.479,0.545c-1.565,0.075-3.125,0.3-4.61,0.805   c-0.2,1.16-0.265,2.335-0.275,3.515c-0.345,0.045-1.035,0.13-1.38,0.175c-0.39-2.945-0.785-5.89-1.17-8.83   c4.86-3.155,9.715-6.32,14.57-9.479c-5.495-1.646-11-3.271-16.495-4.91c-0.42-3.21-0.855-6.42-1.275-9.625   c0.47-0.075,0.94-0.146,1.415-0.21c0.335,1.104,0.47,2.354,1.265,3.265c1.55,0.51,3.17-0.045,4.735-0.22   c4.385-0.795,8.84-1.25,13.19-2.24C241.759,302.739,241.234,300.484,241.314,299.109z"/>
	<path fill="#1D1F73" stroke="#1D1F73" stroke-width="0.0938" stroke-miterlimit="10.43" d="M616.583,319.064   c0.705-6.665,1.415-13.33,2.12-19.995c0.36,0.03,1.08,0.09,1.44,0.12c0.064,1.145,0.175,2.29,0.385,3.42   c2.81,1.2,5.94,1.055,8.92,1.49c3.455,0.25,6.925,1.11,10.4,0.62c0.38-0.99,0.705-1.995,1.005-3.01   c0.465,0.035,0.935,0.08,1.41,0.125c-0.45,4.345-0.915,8.686-1.37,13.03c-0.355-0.04-1.065-0.115-1.415-0.15   c-0.075-1.14-0.18-2.274-0.365-3.399c-2.575-1.11-5.425-1.04-8.155-1.4c-3.205-0.255-6.395-0.905-9.62-0.765   c-1.355-0.065-1.85,1.41-2.03,2.495c-0.21,1.609-0.47,3.345,0.13,4.904c0.95,1.535,2.74,2.215,4.245,3.08   c-0.075,0.385-0.23,1.16-0.306,1.545C621.109,320.469,618.844,319.77,616.583,319.064z"/>
	<path fill="#1D1F73" stroke="#1D1F73" stroke-width="0.0938" stroke-miterlimit="10.43" d="M564.373,315.645   c0.865-1.13,2.46-0.875,3.66-0.54c0.545,2.234-2.555,1.944-3.935,2.314c0.535,1.315,1.935,1.915,3.305,1.765   c2.405-0.275,4.87-1.195,7.28-0.355c1.24,0.28,2.135,2.13,0.925,3c-1.68,2.105-4.56,2.16-7.01,2.34   c0.165,0.9,0.29,1.811,0.404,2.726c0.74,0.3,1.46,0.67,2.056,1.215c-1.59,0.965-2.865,2.3-3.905,3.825   c-0.77,1.165-2.185,1.465-3.49,1.34c1.521-1.11,3.351-2.01,3.665-4.08c-0.97-0.79-1.85-1.675-2.57-2.69   c-0.62,0.271-1.23,0.54-1.84,0.815c-1.1,2.42-2.1,4.945-3.795,7.02c-0.899,0.95-2.25,1.056-3.354,0.4   c0.915-0.66,1.905-1.205,2.92-1.695c0.89-1.86,1.965-3.62,2.9-5.46c-2.505,0.725-5.05,1.36-7.48,2.311   c-2.12,1.359-3.87,3.2-5.63,4.984c-1.15,0.96-2.83,0.771-4.025-0.01c0.925-0.53,1.955-0.81,2.936-1.215   c2.18-1.21,3.635-3.355,4.489-5.65c-1-1.26-1.899-2.635-3.274-3.515c-1.315-0.83-2.235-2.14-2.505-3.68   c1.54,1.01,2.41,2.97,4.335,3.37c1.385,0.28,3.18,0.39,4.24-0.715c0.765-1.52,0.61-3.3,1.07-4.91c0.56,0.715,1.03,1.54,1.725,2.155   c1.065,0.19,2.14-0.085,3.215-0.13c-0.885,1.635-2.775,2.915-2.75,4.92c2.435,0.53,4.1-2.15,6.475-2.35   c3.14-0.175,6.6,0.645,9.49-1c0.92-0.39,0.995-1.43,1.235-2.265c-1.69-0.415-3.445-0.69-5.15-0.21c-2.14,0.5-4.91,0.705-6.435-1.2   C563.323,317.464,563.839,316.459,564.373,315.645z"/>
	<path fill="#1D1F73" stroke="#1D1F73" stroke-width="0.0938" stroke-miterlimit="10.43" d="M614.783,329.274   c0.45,0.08,0.905,0.165,1.365,0.25c-0.025,1.07,0,2.149,0.104,3.22c3.011,1.52,6.44,1.76,9.675,2.57   c2.815,0.49,5.59,1.465,8.47,1.484c1.985,0.021,1.335-3.569,3.625-2.814c-0.86,4.24-1.79,8.475-2.675,12.715   c-0.34-0.06-1.025-0.17-1.365-0.225c0.01-1.085-0.005-2.17-0.1-3.25c-2.89-1.445-6.165-1.715-9.26-2.475   c-3.22-0.58-6.39-1.7-9.7-1.535c-0.83,1.095-0.935,3.266-2.79,2.8C612.939,337.754,613.904,333.52,614.783,329.274z"/>
	<path fill="#1D1F73" stroke="#1D1F73" stroke-width="0.0938" stroke-miterlimit="10.43" d="M229.848,348.114   c4.635-0.245,8.905-2.47,13.515-2.87c2.785-0.265,5.81,0.615,7.6,2.87c2.14,2.645,3.14,6.14,3.06,9.515   c-0.04,2.355-1.255,4.65-3.295,5.87c-4.83,2.94-10.83,2.94-15.725,5.71c-0.225,1.345,0.855,3.44-1.135,3.771   c-1.215-4.146-2.385-8.306-3.58-12.455c0.43-0.13,0.865-0.255,1.3-0.375c0.475,0.96,1.005,1.895,1.62,2.78   c1.55-0.085,3.08-0.395,4.565-0.835c3.165-0.94,6.41-1.69,9.375-3.175c1.665-0.895,3.19-2.375,3.55-4.295   c0.46-2.665-0.98-5.745-3.64-6.62c-2.73-0.96-5.615-0.045-8.315,0.57c-2.6,0.785-5.28,1.44-7.7,2.715   c-1.53,0.825-0.85,2.815-0.815,4.185c-0.33,0.09-0.99,0.26-1.32,0.35c-0.955-3.32-1.895-6.645-2.86-9.96   c0.33-0.095,0.995-0.285,1.33-0.38C227.993,346.484,228.434,348.059,229.848,348.114z"/>
	<g>
		<path fill="#1D1F73" stroke="#1D1F73" stroke-width="0.0938" stroke-miterlimit="10.43" d="M609.408,353.069    c0.33,0.11,1,0.32,1.33,0.43c-0.085,1.075-0.57,2.255-0.06,3.295c0.89,0.925,2.19,1.255,3.355,1.715    c3.62,1.235,7.255,2.445,10.88,3.675c1.275,0.45,2.605,0.72,3.96,0.81c0.575-0.835,1.105-1.695,1.62-2.565    c0.33,0.11,0.99,0.335,1.32,0.445c-1.285,3.81-2.575,7.62-3.86,11.43c-0.75,2.08-1.52,4.26-3.125,5.85    c-1.865,2.15-5.825,1.79-7.229-0.69c-0.965-1.399-1-3.155-1.075-4.785c-0.95,1.64-2.115,3.265-3.86,4.125    c-2.95,1.405-6.895-0.38-7.805-3.515c-0.885-2.805-0.135-5.755,0.65-8.485C606.739,360.869,608.118,356.984,609.408,353.069z     M606.984,367.099c0.06,3.245,4.055,5.27,6.87,4.055c2.195-1.1,3.06-3.56,3.89-5.695c-2.585-0.814-5.09-2.005-7.8-2.325    C607.819,362.919,606.924,365.364,606.984,367.099z M619.378,365.994c-0.399,1.37-0.95,2.74-0.91,4.195    c-0.02,2.99,4.105,4.859,6.37,2.939c1.39-1.075,1.785-2.88,2.175-4.495C624.503,367.654,621.928,366.859,619.378,365.994z"/>
	</g>
	<path fill="#1D1F73" stroke="#1D1F73" stroke-width="0.0938" stroke-miterlimit="10.43" d="M257.973,373.239   c0.32-0.12,0.96-0.36,1.28-0.48c1.625,3.95,3.245,7.905,4.87,11.855c-0.43,0.17-0.854,0.345-1.28,0.525   c-0.575-0.92-1.195-1.8-1.895-2.62c-3.275,0.49-6.205,2.135-9.275,3.285c-2.905,1.31-6.095,2.125-8.67,4.07   c0.085,1.075,0.26,2.146,0.495,3.205c-0.32,0.125-0.96,0.375-1.275,0.5c-1.615-3.955-3.225-7.91-4.84-11.86   c0.42-0.19,0.84-0.37,1.26-0.55c0.58,0.9,1.195,1.785,1.865,2.625c2.78-0.32,5.27-1.68,7.845-2.665   c3.385-1.51,7.04-2.51,10.115-4.64C258.364,375.395,258.194,374.309,257.973,373.239z"/>
	<path fill="#1D1F73" stroke="#1D1F73" stroke-width="0.0938" stroke-miterlimit="10.43" d="M597.599,385.534   c0.415,0.2,0.835,0.405,1.26,0.61c-0.355,1.115-0.645,2.25-0.81,3.415c2.42,2.115,5.515,3.175,8.305,4.695   c2.979,1.365,5.76,3.24,8.979,4.03c0.73-0.75,1.4-1.56,2.035-2.395c0.305,0.15,0.92,0.45,1.23,0.6   c-2.891,5.78-5.771,11.56-8.66,17.34c-1.925-0.8-3.845-1.595-5.765-2.39c0.19-0.455,0.39-0.905,0.59-1.351   c1.52,0.146,3.47,0.945,4.685-0.405c1.455-1.68,2.41-3.74,3.205-5.795c-2.35-1.465-4.9-2.57-7.355-3.835   c-0.8,1.68-1.81,3.29-2.315,5.1c-0.405,1.235,1.055,1.88,1.695,2.695c-0.155,0.315-0.47,0.935-0.63,1.245   c-2.37-1.18-4.735-2.36-7.1-3.54c0.15-0.315,0.445-0.935,0.595-1.245c0.88,0.1,1.775,0.35,2.681,0.235   c1.51-1.5,2.149-3.615,3.149-5.445c-2.604-1.15-5.045-2.945-7.92-3.3c-2.015,1.235-2.8,3.755-3.56,5.875   c-0.69,2.105,1.16,3.745,2.375,5.195c-0.28,0.435-0.55,0.875-0.815,1.32c-1.715-1.375-3.425-2.75-5.135-4.125   C591.408,397.889,594.503,391.709,597.599,385.534z"/>
	<g>
		<path fill="#1D1F73" stroke="#1D1F73" stroke-width="0.0938" stroke-miterlimit="10.43" d="M385.694,394.364    c30.065-0.005,60.13,0,90.2-0.005c0,4.729,0,9.46,0,14.189c32.78,0,65.56,0,98.34,0.005c-12.95,20.56-29.3,39.11-48.815,53.665    c-18.51,13.895-39.895,24.11-62.555,28.975c-2.555,0.65-5.415,0.625-7.56,2.354c-13.575,9.11-32.23,9.705-46.42,1.61    c-2.155-1.07-3.93-2.99-6.425-3.255c-31.24-5.895-60.045-22.03-82.875-43.955c-12.31-11.68-22.899-25.085-31.979-39.395    c32.695-0.005,65.39-0.005,98.085-0.005C385.689,403.819,385.689,399.089,385.694,394.364z M387.333,396.02    c-0.005,18.545,0,37.09-0.005,55.635c-0.01,3.845-0.03,7.725,0.67,11.525c1.771,10.65,7.785,20.475,16.345,27.035    c11.325,8.86,27.18,11.405,40.715,6.561c13.77-4.7,24.685-16.8,27.944-30.976c0.976-3.965,1.21-8.06,1.19-12.125    c-0.01-19.22,0-38.435-0.005-57.654C445.239,396.02,416.283,396.02,387.333,396.02z"/>
	</g>
	<g>
		<path fill="#1D1F73" stroke="#1D1F73" stroke-width="0.0938" stroke-miterlimit="10.43" d="M251.379,403.634    c2.555-5.79,10.41-8.465,15.98-5.455c3.2,1.685,5.595,4.555,7.385,7.645c1.965,3.4,3.83,6.85,5.755,10.27    c-0.3,0.165-0.9,0.5-1.2,0.67c-0.7-0.865-1.44-1.69-2.275-2.42c-3.04,0.74-5.585,2.645-8.325,4.06    c-2.885,1.73-6.09,3.015-8.59,5.315c0.205,1,0.46,1.985,0.755,2.97c-0.44,0.229-0.88,0.47-1.32,0.715    c-2.22-4.09-4.575-8.105-6.72-12.235C251.059,411.669,249.868,407.439,251.379,403.634z M258.899,404.114    c-2.17,1.385-4.24,3.395-4.635,6.06c-0.46,2.94,1.03,5.715,2.69,8.025c4.665-1.95,8.895-4.8,13.38-7.12    c1.25-0.83,3.39-1.55,3.135-3.405c-0.89-3.104-3.74-5.74-7.045-5.895C263.734,401.619,261.138,402.709,258.899,404.114z"/>
	</g>
	<g>
		<path fill="#1D1F73" stroke="#1D1F73" stroke-width="0.0938" stroke-miterlimit="10.43" d="M407.769,407.454    c1.08-0.835,2.155-1.665,3.235-2.495c6.44,8.28,12.875,16.561,19.31,24.84c6.445-8.279,12.885-16.56,19.33-24.84    c1.075,0.83,2.155,1.66,3.235,2.495c-1.89,2.44-3.785,4.875-5.675,7.315c1.21,0.944,2.42,1.895,3.63,2.845    c1.896-2.44,3.79-4.875,5.686-7.315c1.21,0.94,2.425,1.885,3.64,2.83c-0.945,1.22-1.885,2.445-2.83,3.67    c1.215,0.945,2.425,1.896,3.646,2.846c0.944-1.226,1.89-2.45,2.84-3.67c1.22,0.94,2.435,1.88,3.655,2.825    c-1.89,2.44-3.78,4.885-5.67,7.33c-2.435-1.899-4.875-3.795-7.31-5.689c-0.95,1.22-1.9,2.435-2.845,3.66    c2.435,1.89,4.875,3.78,7.31,5.67c-0.939,1.22-1.885,2.444-2.825,3.67c-4.885-3.79-9.77-7.585-14.655-11.375    c-2.855,3.67-5.695,7.345-8.55,11.01c4.895,6.325,9.825,12.62,14.71,18.945c1.085-1.605,2.365-3.115,4.055-4.115    c3.695-2.26,9.135-1.22,11.49,2.495c2.965,4.955,0.995,11.17-2,15.63c1.185,0.3,2.76,0.155,3.53,1.31    c0.78,1.101,0.05,2.931-1.345,3.025c-1.54,0.08-3.07-0.17-4.605-0.27c-0.35,1.525-0.37,3.12-0.845,4.62    c-0.67,1.44-2.985,1.345-3.58-0.115c-0.314-1.17,0-2.385,0.056-3.555c-3.355,1.061-6.94,1.71-10.42,0.865    c-2.59-0.565-5.1-2.07-6.35-4.475c-1.89-3.525-0.82-8.265,2.325-10.7c1.235-1.075,2.745-1.745,4.26-2.32    c-4.705-6.015-9.37-12.06-14.06-18.085c-4.7,6.025-9.365,12.075-14.08,18.085c2.74,0.97,5.435,2.675,6.695,5.405    c1.75,3.55,0.69,8.33-2.715,10.5c-4.2,2.75-9.635,2.275-14.189,0.725c0.06,1.18,0.345,2.396,0.08,3.58    c-0.646,1.41-2.925,1.555-3.59,0.1c-0.49-1.5-0.505-3.105-0.855-4.63c-1.67,0.08-3.36,0.46-5.025,0.195    c-1.42-0.525-1.69-2.7-0.39-3.51c1.03-0.54,2.24-0.51,3.36-0.72c-1.445-2.375-2.86-4.855-3.266-7.645    c-0.475-2.755-0.27-5.79,1.34-8.16c2.43-3.66,7.905-4.595,11.55-2.26c1.615,0.99,2.83,2.465,3.89,4.015    c4.905-6.315,9.82-12.62,14.725-18.93c-2.845-3.67-5.7-7.34-8.54-11.015c-4.895,3.79-9.785,7.585-14.675,11.375    c-0.944-1.226-1.89-2.45-2.83-3.67c2.435-1.896,4.875-3.78,7.315-5.67c-0.95-1.225-1.9-2.445-2.85-3.66    c-2.435,1.895-4.87,3.79-7.31,5.685c-1.89-2.44-3.78-4.885-5.67-7.325c1.22-0.944,2.445-1.885,3.67-2.825    c0.945,1.22,1.895,2.445,2.845,3.67c1.22-0.95,2.445-1.9,3.67-2.846c-0.945-1.225-1.895-2.45-2.84-3.67    c1.21-0.945,2.425-1.89,3.641-2.825c1.89,2.435,3.78,4.87,5.67,7.31c1.225-0.95,2.455-1.895,3.685-2.84    C411.564,412.329,409.663,409.895,407.769,407.454z M401.884,451.669c-1.555,1.105-1.79,3.19-1.71,4.95    c0.17,3.775,2.85,6.69,3.975,10.17c4.275,0.365,8.745,2.595,12.945,0.62c2.945-1.035,3.325-5.17,1.3-7.25    c-1.565-1.94-4.146-2.28-6.305-3.165c-1.44-1.28-2.05-3.27-3.545-4.52C406.828,450.784,403.918,450.234,401.884,451.669z     M452.144,452.384c-1.46,1.255-2.085,3.19-3.46,4.5c-1.98,0.81-4.26,1.135-5.86,2.675c-1.825,1.58-2.475,4.655-0.89,6.615    c1.104,1.24,2.814,1.73,4.41,1.945c3.49,0.505,6.755-1.195,10.2-1.39c1.115-3.465,3.8-6.34,3.995-10.09    c0.101-1.765-0.09-3.855-1.61-5.005C456.884,450.134,453.889,450.659,452.144,452.384z"/>
	</g>
	<g>
		<path fill="#1D1F73" stroke="#1D1F73" stroke-width="0.0938" stroke-miterlimit="10.43" d="M582.514,413.914    c0.29,0.195,0.875,0.59,1.165,0.785c-0.425,0.98-1.02,1.935-1.045,3.04c0.625,1.22,1.825,1.965,2.895,2.76    c3.055,2.13,6.11,4.265,9.16,6.405c1.145,0.815,2.385,1.495,3.71,1.98c1.155-0.68,2.09-2.67,3.57-1.385    c-2.56,3.67-5.1,7.36-7.71,11c-1.33,1.69-2.67,3.58-4.76,4.365c-2.865,1.075-6.34-0.645-7.34-3.5    c-0.615-1.61-0.29-3.355-0.03-4.995c-4.56,0.105-9.524-0.995-13.685,1.405c-0.33-0.295-0.65-0.585-0.965-0.865    c1.755-2.295,3.435-5.155,6.47-5.83c2.975-0.525,5.98,0.135,8.97,0.12c1.325,0.13,1.99-1.205,2.811-1.995    c-2.23-1.52-4.345-3.28-6.885-4.255c-0.87,0.645-1.675,1.37-2.43,2.14c-0.29-0.2-0.87-0.595-1.16-0.79    C577.674,420.834,580.094,417.374,582.514,413.914z M584.774,433.174c0.135,3.025,3.475,5.335,6.365,4.726    c1.97-0.515,3.145-2.325,3.925-4.075c-2.62-1.96-5.335-3.785-8.015-5.66C586.053,429.699,584.814,431.254,584.774,433.174z"/>
	</g>
	<path fill="#1D1F73" stroke="#1D1F73" stroke-width="0.0938" stroke-miterlimit="10.43" d="M284.299,423.624   c0.28-0.2,0.845-0.604,1.125-0.81c2.53,3.45,5.065,6.895,7.595,10.345c-0.28,0.205-0.845,0.62-1.125,0.825   c-0.785-0.74-1.595-1.44-2.465-2.065c-2.45,0.945-4.425,2.715-6.54,4.215c-3.035,2.41-6.535,4.31-9.105,7.26   c0.37,1.02,0.81,2.02,1.28,3.01c-0.285,0.2-0.86,0.61-1.145,0.81c-2.525-3.45-5.06-6.89-7.585-10.34   c0.28-0.2,0.851-0.604,1.135-0.805c0.77,0.705,1.48,1.525,2.475,1.925c2.35-0.57,4.075-2.425,6.04-3.725   c3.205-2.53,6.875-4.55,9.565-7.67C285.189,425.579,284.759,424.594,284.299,423.624z"/>
	<path fill="#1D1F73" stroke="#1D1F73" stroke-width="0.0938" stroke-miterlimit="10.43" d="M290.444,446.234   c1.055-3.311,4.89-5.311,8.22-4.34c4.64,1.3,8.09,5.505,9.135,10.125c-1.295,1.77-2.585,3.55-3.875,5.325   c-0.375-0.37-0.755-0.74-1.13-1.105c0.905-2.055,1.62-4.3,1.28-6.565c-0.09-2.234-1.84-4.319-4.08-4.63   c-2.04-0.229-3.785,1.595-3.98,3.535c-0.235,2.23,0.935,4.235,1.55,6.31c0.655,2.075,0.97,4.445-0.015,6.48   c-1.675,2.825-5.51,4.005-8.51,2.69c-3.615-1.375-5.82-4.76-7.52-8.05c1.29-1.545,2.58-3.09,3.875-4.63   c0.4,0.335,0.805,0.675,1.21,1.025c-1.175,2.225-2.095,5.21-0.335,7.4c1.255,2,4.52,2.04,5.77,0.02c1-1.54,0.38-3.45-0.229-5.005   C290.748,452.129,289.538,449.139,290.444,446.234z"/>
	<path fill="#1D1F73" stroke="#1D1F73" stroke-width="0.0938" stroke-miterlimit="10.43" d="M559.779,444.104   c0.335,0.305,0.675,0.615,1.02,0.935c-0.655,0.96-1.265,1.955-1.755,3.015c1.195,2.06,3.04,3.595,4.735,5.23   c3.055,2.905,6.1,5.825,9.155,8.74c1.125-1.415,2.52-2.69,3.215-4.385c0.295-1.55-0.8-2.915-1.42-4.25   c0.25-0.255,0.75-0.765,1-1.02c1.7,1.865,3.439,3.695,5.095,5.6c-2.81,0.74-4.445,3.225-6.395,5.165   c-2.535,2.67-5.11,5.305-7.63,7.985c-0.835,0.84-1.095,2.025-1.52,3.095c-1.945-1.555-3.83-3.17-5.73-4.77   c0.24-0.285,0.72-0.855,0.96-1.14c1.435,0.665,3.08,2.04,4.705,1.125c1.51-0.82,2.62-2.18,3.825-3.37   c-3.85-3.66-7.7-7.33-11.53-11.01c-0.905-0.899-1.95-1.635-3.08-2.205c-1.055,0.57-2.04,1.255-2.98,2   c-0.34-0.33-0.68-0.65-1.01-0.965C553.553,450.619,556.663,447.364,559.779,444.104z"/>
	<path fill="#1D1F73" stroke="#1D1F73" stroke-width="0.0938" stroke-miterlimit="10.43" d="M310.678,462.204   c1.715-1.355,3.435-2.71,5.155-4.06c5.32,4.415,10.65,8.819,15.97,13.24c-0.23,0.27-0.69,0.81-0.92,1.08   c-0.985-0.6-2-1.14-3.065-1.56c-2.675,1.865-4.425,4.69-6.555,7.1c-1.99,2.59-4.46,4.855-5.925,7.815   c0.575,0.89,1.22,1.725,1.89,2.55c-0.22,0.265-0.665,0.785-0.885,1.05c-4.975-4.125-9.945-8.245-14.92-12.37   c1.22-1.689,2.435-3.385,3.655-5.069c0.405,0.274,0.81,0.555,1.22,0.845c-0.535,1.435-1.745,3.13-0.72,4.62   c1.29,1.815,3.105,3.175,4.895,4.47c1.985-1.95,3.635-4.2,5.435-6.315c-1.655-1.28-3.11-2.92-5.085-3.695   c-0.86,0.285-1.59,0.83-2.35,1.315c-0.36-0.3-0.72-0.595-1.08-0.885c1.68-2.04,3.365-4.08,5.05-6.115   c0.27,0.225,0.805,0.68,1.07,0.905c-0.32,0.805-0.695,1.605-0.845,2.475c1.12,1.815,3.02,2.93,4.585,4.325   c1.67-2.125,3.725-4.02,4.89-6.49c0.43-0.85-0.36-1.575-0.84-2.18c-1.23-1.29-2.66-2.42-4.255-3.225   c-1.84-0.875-3.665,0.515-5.28,1.27C311.404,462.929,311.038,462.564,310.678,462.204z"/>
	<g>
		<path fill="#1D1F73" stroke="#1D1F73" stroke-width="0.0938" stroke-miterlimit="10.43" d="M536.569,466.064    c2.545-1.97,5.08-3.945,7.635-5.905c0.265,0.355,0.54,0.72,0.82,1.085c-1.271,1.325-2.055,3.11-1.435,4.95    c1.63,6.92,3.59,13.765,5.3,20.67c-0.436,0.485-0.855,0.99-1.28,1.49c-6.345-3.62-12.62-7.37-19.015-10.9    c-1.62-1.085-3.505-0.49-5.045,0.405c-0.27-0.37-0.54-0.74-0.8-1.1c3.16-2.45,6.33-4.895,9.485-7.35    c0.31,0.38,0.625,0.76,0.94,1.15c-0.54,0.6-1.075,1.21-1.595,1.84c1.345,1.485,3.18,2.35,4.88,3.35    c1.915-1.479,3.83-2.965,5.745-4.445c-0.64-1.655-0.979-3.47-2-4.935c-0.95-0.56-1.915,0.48-2.79,0.795    C537.203,466.889,536.779,466.339,536.569,466.064z M538.349,476.895c2.359,1.415,4.725,2.845,7.1,4.25    c-0.78-2.635-1.59-5.26-2.385-7.891C541.489,474.464,539.918,475.679,538.349,476.895z"/>
	</g>
	<g>
		<path fill="#1D1F73" stroke="#1D1F73" stroke-width="0.0938" stroke-miterlimit="10.43" d="M335.958,474.659    c3.46,2.035,6.931,4.06,10.391,6.095c-0.23,0.405-0.46,0.815-0.69,1.23c-0.81-0.26-1.62-0.5-2.435-0.73    c-0.735,1.825-0.925,3.8-1.205,5.735c2.09,1.23,4.185,2.465,6.28,3.7c1.35-1.315,3.185-2.295,3.97-4.07    c-0.521-0.74-1.235-1.3-1.905-1.875c0.225-0.415,0.455-0.82,0.685-1.215c2.82,1.67,5.68,3.285,8.47,5.02    c-0.765,1.58-2.305,0.465-3.565,0.471c-1.67,0.26-2.99,1.415-4.34,2.345c-5.09,3.765-10.19,7.52-15.285,11.28    c-0.635-0.215-1.27-0.425-1.905-0.625c1-7.29,2.19-14.556,3.065-21.855c0.395-1.855-0.94-3.265-2.23-4.34    C335.489,475.429,335.724,475.039,335.958,474.659z M340.283,497.359c2.165-1.7,4.3-3.436,6.455-5.15    c-1.71-1.01-3.415-2.015-5.125-3.02C341.168,491.914,340.703,494.629,340.283,497.359z"/>
	</g>
	<path fill="#1D1F73" stroke="#1D1F73" stroke-width="0.0938" stroke-miterlimit="10.43" d="M501.979,488.299   c3.975-2.13,7.955-4.25,11.93-6.375c0.16,0.315,0.48,0.936,0.64,1.245c-0.885,0.695-1.925,1.3-2.45,2.345   c0.04,1.445,0.81,2.715,1.444,3.975c2.425,4.525,4.835,9.06,7.266,13.58c1.569-1.065,3.505-1.83,4.595-3.455   c0.435-1.37-0.055-2.81-0.205-4.18c0.315-0.16,0.94-0.485,1.255-0.645c1.045,2.3,2.13,4.59,3.13,6.915   c-1.194,0.065-2.455,0-3.52,0.635c-4.68,2.485-9.35,4.98-14.015,7.49c-1.055,0.505-1.65,1.53-2.3,2.45   c-1.38-2.07-2.665-4.2-3.984-6.305c0.314-0.21,0.939-0.625,1.25-0.83c1.194,1.16,2.43,3.02,4.359,2.55   c1.601-0.35,3.01-1.245,4.465-1.96c-2.895-5.28-5.56-10.7-8.595-15.9c-0.975-1.895-3.15-0.85-4.625-0.28   C502.399,489.129,502.189,488.709,501.979,488.299z"/>
	<g>
		<path fill="#1D1F73" stroke="#1D1F73" stroke-width="0.0938" stroke-miterlimit="10.43" d="M362.129,490.879    c0.15-0.29,0.46-0.87,0.61-1.16c2.71,1.08,5.955,2.03,7.355,4.855c1.255,2.755,1.33,5.86,2.14,8.75    c0.265,1.185,1.645,1.435,2.535,2.03c0.939-2.521,2.095-5.016,2.33-7.726c-0.865-0.649-1.775-1.234-2.7-1.78    c0.165-0.435,0.335-0.87,0.505-1.295c3.96,1.445,7.92,2.89,11.88,4.34c-0.115,0.33-0.34,0.984-0.455,1.314    c-1.09-0.13-2.255-0.604-3.32-0.145c-1.755,2.109-2.205,4.955-3.27,7.435c-1.13,3.51-2.94,6.86-3.345,10.57    c0.825,0.63,1.689,1.205,2.58,1.755c-0.115,0.32-0.355,0.965-0.47,1.285c-3.92-1.445-7.845-2.875-11.765-4.32    c-2.255-0.89-4.64-1.875-6.165-3.85c-1.69-2.53-0.86-6.33,1.685-7.97c1.375-0.965,3.105-1.075,4.72-1.22    C365.748,499.364,365.578,494.249,362.129,490.879z M367.998,506.259c-2.265,1.315-3.3,4.56-2.16,6.93    c0.98,1.845,3.105,2.515,5.03,2.854c1.155-3.064,2.26-6.145,3.37-9.225C372.269,506.179,370.009,505.234,367.998,506.259z"/>
	</g>
	<path fill="#1D1F73" stroke="#1D1F73" stroke-width="0.0938" stroke-miterlimit="10.43" d="M476.229,498.254   c4.05-1.37,8.104-2.729,12.155-4.09c0.155,0.43,0.31,0.87,0.47,1.31c-0.936,0.52-1.855,1.07-2.735,1.68   c0.11,2.455,1.08,4.735,1.835,7.045c0.93,2.74,1.83,5.5,2.771,8.245c0.39,1.025,0.729,2.14,1.55,2.93   c1.025,0.46,2.165,0.005,3.229-0.075c0.11,0.33,0.325,0.995,0.436,1.33c-4.05,1.365-8.1,2.726-12.15,4.09   c-0.155-0.445-0.305-0.885-0.455-1.315c0.936-0.535,1.855-1.09,2.735-1.705c-0.17-2.66-1.235-5.12-2.045-7.62   c-0.855-2.525-1.68-5.06-2.545-7.575c-0.425-1.1-0.775-2.33-1.735-3.09c-1.03-0.27-2.08,0.05-3.1,0.165   C476.538,499.249,476.333,498.584,476.229,498.254z"/>
	<path fill="#1D1F73" stroke="#1D1F73" stroke-width="0.0938" stroke-miterlimit="10.43" d="M450.144,505.349   c3.485-3.775,9.375-4.425,14.045-2.725c0.78,2.055,1.57,4.105,2.36,6.155c-0.52,0.12-1.035,0.245-1.545,0.375   c-1.234-1.945-2.77-3.82-4.935-4.755c-2.19-1.226-5.56-0.54-6.505,1.955c-0.7,2.17,0.845,4.47,2.9,5.18   c3.24,1.115,7.2,1.2,9.525,4.085c2.1,2.855,1.01,7.26-1.86,9.195c-3.15,2.295-7.24,2.335-10.95,1.945   c-0.6-1.93-1.185-3.86-1.765-5.79c0.385-0.115,1.16-0.34,1.55-0.45c1.265,2.505,3.79,5.104,6.87,4.165   c2.695-0.59,3.445-4.59,1.08-6.045c-2.745-1.63-6.24-1.23-8.979-2.95C448.154,513.895,447.309,508.334,450.144,505.349z"/>
	<g>
		<path fill="#1D1F73" stroke="#1D1F73" stroke-width="0.0938" stroke-miterlimit="10.43" d="M402.444,502.129    c4.335,0.726,8.675,1.455,13.01,2.186c-0.055,0.345-0.165,1.035-0.22,1.375c-1.23,0.12-3.105-0.37-3.625,1.149    c-0.955,2.851-1.145,5.896-1.735,8.835c-0.395,2.815-1.189,5.605-1.17,8.465c-0.025,1.49,1.8,1.66,2.835,2.18    c-0.055,0.34-0.165,1.015-0.22,1.35c-4.16-0.71-8.33-1.375-12.48-2.115c-2.32-0.535-4.85-1.045-6.555-2.84    c-2.855-2.819-1.965-8.22,1.51-10.13c3.375-1.795,7.69-1.945,11,0.1c0.3-2.16,0.815-4.295,0.891-6.475    c0.14-1.95-2.13-2.165-3.476-2.705C402.269,503.159,402.384,502.474,402.444,502.129z M396.489,520.249    c0.445,2.74,3.63,4.195,6.155,3.72c0.935-3.12,1.17-6.4,1.814-9.585c-1.425-0.615-3.03-1.24-4.575-0.66    C397.168,514.464,396.149,517.724,396.489,520.249z"/>
	</g>
	<path fill="#1D1F73" stroke="#1D1F73" stroke-width="0.0938" stroke-miterlimit="10.43" d="M430.529,511.739   c4.025-0.345,7.28,4.16,5.75,7.89c-1.245,4.016-7.105,5.271-9.695,1.855C423.428,518.129,425.873,511.879,430.529,511.739z"/>
</g>
<g>
	<g>
		<path fill="none" stroke="#FFFFFF" stroke-width="0.0938" stroke-miterlimit="10.43" d="M709.752,623.824    c4.444-0.979,11.044,1.405,10.667,6.861c0.261,9.18-0.098,18.361,0.163,27.525c-3.593,1.388-7.513,3.495-11.319,1.584    c-7.252-3.267-10.063-11.924-9.475-19.356C699.837,633.806,702.632,625.688,709.752,623.824z"/>
		<path fill="none" stroke="#FFFFFF" stroke-width="0.0938" stroke-miterlimit="10.43" d="M245.119,635.863    c1.601-5.356,4.28-13.605,11.452-12.364c4.819,1.796,6.125,6.99,6.403,11.597C257.061,635.946,251.081,635.994,245.119,635.863z"/>
		<path fill="none" stroke="#FFFFFF" stroke-width="0.0938" stroke-miterlimit="10.43" d="M434.704,635.881    c1.665-5.309,4.099-13.412,11.222-12.513c4.819,1.828,6.338,6.942,6.975,11.581C446.89,635.978,440.78,635.978,434.704,635.881z"/>
		<path fill="none" stroke="#FFFFFF" stroke-width="0.0938" stroke-miterlimit="10.43" d="M623.259,635.848    c1.601-4.77,3.284-10.503,8.512-12.432c6.762-1.208,9,6.437,9.817,11.549C635.528,636.012,629.384,636.028,623.259,635.848z"/>
		<path fill="none" stroke="#FFFFFF" stroke-width="0.0938" stroke-miterlimit="10.43" d="M754.347,635.863    c1.421-4.817,3.186-10.405,8.315-12.479c6.582-1.094,9,6.372,10.045,11.403C766.663,635.994,760.472,636.044,754.347,635.863z"/>
	</g>
	<g>
		<g>
			<path fill="#1D1F73" stroke="#1D1F73" stroke-width="0.0938" stroke-miterlimit="10.43" d="M718.051,593.491     c4.59-0.98,9.196-1.944,13.787-2.924c0.048,22.118-0.278,44.251,0.114,66.369c-0.603,4.312,4.819,3.364,7.58,3.855     c-0.049,0.832-0.165,2.466-0.212,3.299c-6.355,0.981-12.612,2.45-18.785,4.183c-0.018-1.487-0.065-4.477-0.099-5.963     c-5.063,2.777-10.323,7.448-16.514,5.325c-13.559-2.826-20.761-19.079-15.648-31.511c4.639-12.757,19.241-19.34,32.229-17.332     c-0.032-6.336-0.017-12.675-0.017-19.013c-0.767-0.538-2.303-1.6-3.07-2.124c-1.176-0.099-3.529-0.293-4.705-0.392     c0.017-0.718,0.017-2.173,0.032-2.907C714.506,594.062,716.268,593.785,718.051,593.491z M709.752,623.824     c-7.121,1.863-9.915,9.981-9.964,16.614c-0.589,7.432,2.223,16.089,9.475,19.356c3.806,1.911,7.727-0.196,11.319-1.584     c-0.26-9.165,0.099-18.345-0.163-27.525C720.793,625.229,714.195,622.845,709.752,623.824z"/>
		</g>
		<path fill="#1D1F73" stroke="#1D1F73" stroke-width="0.0938" stroke-miterlimit="10.43" d="M167.022,593.604    c3.888-0.048,7.743,0.737,10.39,3.806c-0.017,3.465-0.442,6.926-2.941,9.54c-1.681,0.507-3.364,1.03-5.03,1.585    c-2.222-1.814-5.865-2.89-5.963-6.24C162.611,598.816,164.948,596.055,167.022,593.604z"/>
		<path fill="#1D1F73" stroke="#1D1F73" stroke-width="0.0938" stroke-miterlimit="10.43" d="M364.592,599.698    c0.196-5.701,6.257-6.403,10.715-5.88c1.438,2.304,3.545,4.59,3.17,7.545c0.179,3.612-3.61,5.178-5.767,7.384    C368.643,607.392,363.222,605.072,364.592,599.698z"/>
		<path fill="#1D1F73" stroke="#1D1F73" stroke-width="0.0938" stroke-miterlimit="10.43" d="M474.543,599.714    c0.295-6.435,10.128-8.282,13.101-2.858c2.582,2.827,0.409,6.388-0.539,9.409c-1.944,0.753-3.888,1.52-5.815,2.319    C477.876,606.804,473.317,604.387,474.543,599.714z"/>
		<path fill="#1D1F73" stroke="#1D1F73" stroke-width="0.0938" stroke-miterlimit="10.43" d="M666.808,593.622    c4.329-0.246,10.355,0.652,10.585,6.158c1.6,7.416-9.704,10.845-13.248,4.771C662.072,600.678,664.26,596.594,666.808,593.622z"/>
		<path fill="#1D1F73" stroke="#1D1F73" stroke-width="0.0938" stroke-miterlimit="10.43" d="M558.032,602.736    c10.618-0.734,21.27-0.129,31.903-0.278c0.032,0.704,0.065,2.093,0.097,2.795c-2.989,0.767-5.961,1.551-8.934,2.335    c-2.663,8.608-1.568,17.659-1.731,26.511c0.164,8.447-0.8,17.022,1.291,25.303c5.095,1.013,10.928,2.353,15.616-0.718    c4.672-3.562,7.774-8.675,11.45-13.167c3.937,1.406,1.651,4.853,1.095,7.367c-1.585,4.706-3.315,9.376-4.623,14.195    c-15.501,0.065-31.003-0.049-46.505,0.016c-0.132-0.832-0.409-2.498-0.556-3.332c2.875-0.718,5.98-0.964,8.592-2.466    c3.154-7.597,1.244-16.107,1.749-24.094c-0.49-9.932,1.355-20.157-1.715-29.794C563.159,606.379,557.151,607.261,558.032,602.736z    "/>
		<path fill="#1D1F73" stroke="#1D1F73" stroke-width="0.0938" stroke-miterlimit="10.43" d="M26.002,602.476    c10.633,0.065,21.301-0.489,31.918,0.424c-2.874,2.271-6.175,3.856-9.523,5.276c-0.882,10.26-0.49,20.582-0.523,30.873    c0.083,7.024,1.275,15.191,7.416,19.618c6.599,4.215,16.614,3.219,21.531-3.185c3.479-4.148,4.214-9.753,4.948-14.931    c0.9-10.813,0.801-21.823-1.485-32.474c-3.987-1.192-8.07-2.385-11.288-5.161c10.537-0.476,21.301-1.536,31.689,0.75    c-3.365,1.896-6.812,3.676-10.176,5.586c-2.532,14.882,0.963,30.416-4.165,44.889c-2.892,3.922-5.717,8.184-10.128,10.569    c-6.943,4.28-15.633,4.1-23.408,2.711c-8.233-1.6-15.044-8.33-16.416-16.662c-2.55-13.9-0.23-28.145-1.683-42.159    c-2.875-1.259-5.814-2.354-8.706-3.562V602.476z"/>
		<path fill="#1D1F73" stroke="#1D1F73" stroke-width="0.0938" stroke-miterlimit="10.43" d="M394.534,620.46    c-1.96-7.955,6.077-11.532,11.01-15.796c0.309,5.243,0.26,10.505,0.228,15.763c4.508-0.016,9.017,0,13.526,0.051    c-0.181,1.633-0.377,3.249-0.638,4.883c-4.247,0.882-8.592,0.801-12.904,0.898c0.113,8.037-0.083,16.074,0.065,24.112    c0.098,4.1,0.915,9.229,5.44,10.715c2.629-0.409,5.179-1.241,7.726-1.945c0.147,0.882,0.424,2.631,0.57,3.513    c-5.633,2.335-11.303,7.27-17.754,4.819c-5.276-1.275-7.188-7.237-7.122-12.055c-0.034-9.67,0.032-19.34,0.081-29.012    c-3.006-0.375-6.027-0.587-8.968-1.241l-0.311-0.801c1.192-1.748,3.398-2.498,4.982-3.854    C391.482,620.509,393.524,620.478,394.534,620.46z"/>
		<path fill="#1D1F73" stroke="#1D1F73" stroke-width="0.0938" stroke-miterlimit="10.43" d="M504.847,614.057    c3.38-3.267,6.843-6.453,10.372-9.557c1.519,5.195,1.176,10.635,1.11,15.993c4.363-0.066,8.741-0.083,13.118-0.016    c-0.032,1.273-0.114,3.822-0.146,5.095c-4.296,0.083-8.592,0.1-12.888,0.131c-0.05,9.427-0.295,18.851,0.031,28.277    c-0.049,2.956,2.207,5.095,3.791,7.351c3.054-0.605,6.109-1.308,9.147-2.026c0.18,0.735,0.539,2.238,0.703,2.972    c-5.522,2.337-10.879,7.351-17.266,5.424c-5.195-0.653-7.728-6.092-7.71-10.814c-0.18-10.241,0.048-20.5-0.065-30.741    c-2.468-0.018-4.918,0.065-7.352-0.214c-2.01-4.05,4.459-5.716,7.498-5.88C505.073,618.043,504.96,616.033,504.847,614.057z"/>
		<path fill="#1D1F73" stroke="#1D1F73" stroke-width="0.0938" stroke-miterlimit="10.43" d="M99.265,622.421    c6.026-0.98,12.006-2.32,17.853-4.1c0.016,2.45,0.032,4.916,0.05,7.398c3.87-2.304,7.579-4.933,11.778-6.55    c7.105-2.516,16.089,2.221,17.33,9.817c1.095,10.309-0.261,20.714,0.638,31.021c0.603,2.989,4.165,2.761,6.403,3.807    c-0.131,0.849-0.409,2.516-0.539,3.348c-7.841-0.131-15.683-0.098-23.523-0.032c-0.115-0.817-0.359-2.45-0.474-3.268    c1.976-0.703,4.018-1.306,5.897-2.254c1.241-6.371,0.49-12.921,0.702-19.357c-0.228-4.231,0.507-8.935-1.896-12.676    c-3.806-5.751-13.835-3.283-16.204,2.417c-0.065,9.965-0.767,20.027,0.735,29.926c2.859,0.751,5.929,1.568,5.717,5.146    c-8.691,0.032-17.397,0.114-26.086-0.081c0.131-4.363,4.458-4.083,7.595-4.934c0.9-11.712,0.557-23.489,0.23-35.218    c-2.287-0.654-4.557-1.291-6.845-1.913C98.792,624.3,99.115,623.041,99.265,622.421z"/>
		<g>
			<path fill="#1D1F73" stroke="#1D1F73" stroke-width="0.0938" stroke-miterlimit="10.43" d="M251.555,619.53     c7.385-2.779,16.401,0.21,20.403,7.071c2.597,3.594,1.796,8.25,1.6,12.397c-9.605,0.801-19.241,0.981-28.831,1.945     c0.343,7.432,3.953,15.6,11.696,17.723c6.223,2.321,11.99-1.959,17.511-4.197c-0.555,4.605-4.183,7.841-7.808,10.291     c-9.851,7.089-25.516,2.188-30.008-8.984C229.781,642.316,237.017,623.874,251.555,619.53z M245.119,635.863     c5.962,0.131,11.941,0.083,17.854-0.768c-0.277-4.606-1.583-9.801-6.403-11.597C249.397,622.258,246.72,630.507,245.119,635.863z     "/>
		</g>
		<path fill="#1D1F73" stroke="#1D1F73" stroke-width="0.0938" stroke-miterlimit="10.43" d="M297.49,629.102    c3.659-4.116,7.318-10.145,13.427-10.21c7.073,0.507,6.942,10.78,0.964,12.905c-2.466-0.915-4.67-2.402-6.942-3.675    c-2.874,1.502-5.291,3.642-7.317,6.157c0.244,8.87-0.293,17.756,0.506,26.61c3.022,1.127,6.143,2.026,9.279,2.827    c-0.05,0.849-0.131,2.548-0.181,3.38c-9.277-0.065-18.557,0.034-27.819-0.065c-0.228-4.215,4.018-4.181,6.86-5.244    c0.866-11.565,0.442-23.212,0.229-34.793c-2.302-1.274-7.775-0.424-6.386-4.395c5.88-1.388,11.843-2.451,17.625-4.294    C297.67,621.897,297.571,625.491,297.49,629.102z"/>
		<path fill="#1D1F73" stroke="#1D1F73" stroke-width="0.0938" stroke-miterlimit="10.43" d="M331.58,619.61    c5.421-2.025,11.288-0.849,16.644,0.737c0.997,4.1,2.319,8.216,2.06,12.495c-3.431,0.785-4.248-3.136-6.125-4.981    c-2.288-3.872-8.381-6.714-11.925-2.875c-2.679,2.352-2.189,7.154,0.85,8.984c5.505,4.019,13.265,4.818,17.299,10.812    c5.031,6.322,2.384,16.368-4.477,20.175c-7.66,4.754-17.51,3.626-25.188-0.474c-1.095-4.492-1.568-9.083-1.943-13.673    c0.8,0,2.401,0,3.185,0c2.287,6.158,6.747,11.238,13.02,13.477c4.035-1.372,8.381-4.264,7.205-9.246    c-3.824-7.71-14.212-7.514-19.065-14.277C317.286,633.332,322.875,621.669,331.58,619.61z"/>
		<g>
			<path fill="#1D1F73" stroke="#1D1F73" stroke-width="0.0938" stroke-miterlimit="10.43" d="M441.01,619.578     c7.071-2.629,15.731-0.294,19.977,6.094c3.039,3.788,2.631,8.869,1.976,13.394c-9.67,0.687-19.356,0.947-29.011,1.912     c1.062,6.762,3.365,14.537,10.503,17.118c6.567,3.382,13.167-0.963,19.063-3.626c-0.425,4.705-4.329,7.791-7.938,10.291     c-9.345,6.779-24.094,2.696-29.175-7.514C418.906,643.803,425.946,624.022,441.01,619.578z M434.704,635.881     c6.075,0.097,12.186,0.097,18.196-0.932c-0.637-4.639-2.155-9.753-6.975-11.581C438.803,622.469,436.369,630.572,434.704,635.881     z"/>
		</g>
		<g>
			<path fill="#1D1F73" stroke="#1D1F73" stroke-width="0.0938" stroke-miterlimit="10.43" d="M627.36,620.363     c6.534-3.023,15.11-2.5,20.206,2.99c4.312,3.788,5.244,9.801,4.753,15.256c-9.718,1.812-19.814,0.521-29.403,2.841     c0.033,8.152,5.424,16.63,13.967,17.708c5.799,1.404,10.356-4.149,16.058-3.284c-3.529,5.195-8.315,9.9-14.489,11.68     c-10.292,2.532-22.07-3.79-25.075-14.065C608.786,641.059,615.352,625.803,627.36,620.363z M623.259,635.848     c6.125,0.18,12.269,0.164,18.329-0.882c-0.817-5.113-3.055-12.757-9.817-11.549C626.543,625.344,624.859,631.078,623.259,635.848     z"/>
		</g>
		<g>
			<path fill="#1D1F73" stroke="#1D1F73" stroke-width="0.0938" stroke-miterlimit="10.43" d="M745.037,655.221     c-6.469-14.686,3.037-34.68,19.568-36.575c11.026-1.828,20.877,9.148,18.654,19.945c-9.8,1.52-19.749,1.308-29.599,2.271     c0.801,7.057,3.481,15.125,11.011,17.479c6.322,2.989,12.3-1.438,18.033-3.578c0.604,4.442-4.018,7.285-7.073,9.735     C765.553,672.111,749.379,666.917,745.037,655.221z M754.347,635.863c6.125,0.181,12.316,0.131,18.36-1.077     c-1.044-5.031-3.463-12.497-10.045-11.403C757.532,625.458,755.768,631.046,754.347,635.863z"/>
		</g>
		<path fill="#1D1F73" stroke="#1D1F73" stroke-width="0.0938" stroke-miterlimit="10.43" d="M790.644,622.273    c5.618-1.078,11.174-2.45,16.679-4.052c0.031,2.451,0.081,4.917,0.13,7.383c5.505-3.364,11.37-8.394,18.328-6.778    c5.863,0.948,10.34,6.143,10.634,12.055c0.898,10.159,0.065,20.387,0.424,30.596c1.96,0.799,3.937,1.568,5.913,2.433v3.398    c-7.955-0.44-15.942-0.212-23.897-0.146c-0.147-1.307-0.294-2.597-0.424-3.887c1.47-0.196,4.395-0.556,5.863-0.736    c0.932-8.396,0.883-16.84,0.702-25.253c-0.194-3.658-0.408-8.495-4.327-10.176c-4.574-2.4-9.166,1.014-13.249,2.794    c-0.065,10.471-0.228,20.958,0.146,31.427c2.451,1.243,4.886,2.484,7.254,3.905c-8.233,3.707-17.675,1.11-26.397,1.83    c-0.065-0.931-0.181-2.793-0.228-3.725c2.22-0.311,4.458-0.605,6.696-0.914c1.781-11.696,0.655-23.573,0.898-35.35    c-2.793-0.914-5.602-1.812-8.396-2.696C788.472,623.662,789.55,622.96,790.644,622.273z"/>
		<path fill="#1D1F73" stroke="#1D1F73" stroke-width="0.0938" stroke-miterlimit="10.43" d="M157.842,622.486    c6.125-1.045,12.202-2.369,18.165-4.084c1.649,14.26-0.212,28.684,0.997,42.977c2.107,1.471,4.817,1.633,7.187,2.483    c-0.327,0.752-1.013,2.254-1.356,3.005c-8.38,0.572-16.809,0-25.204,0.262c-0.081-0.866-0.278-2.598-0.375-3.464    c2.32-0.539,4.622-1.062,6.925-1.602c0.523-11.809,0.295-23.636,0.164-35.43c-2.125-0.358-4.248-0.703-6.372-1.046    C157.94,624.544,157.891,623.515,157.842,622.486z"/>
		<path fill="#1D1F73" stroke="#1D1F73" stroke-width="0.0938" stroke-miterlimit="10.43" d="M182.278,622.52    c7.482-4.183,16.531-1.209,24.683-2.093c-0.18,1.356-0.376,2.728-0.555,4.101c-1.372,0.065-4.117,0.163-5.489,0.228    c3.005,11.45,6.159,22.885,9.311,34.304c3.234-11.369,7.105-22.558,10.045-34.01c-2.009-0.211-4.001-0.425-6.011-0.604    c-0.032-1.013-0.115-3.055-0.146-4.067c6.371,0.081,12.757,0.048,19.128,0.048c0.016,0.965,0.034,2.909,0.034,3.889    c-1.716,0.262-3.432,0.539-5.146,0.817c-5.668,13.672-9.605,27.948-14.277,41.981c-3.969-0.018-7.922-0.034-11.892-0.034    c-4.671-13.917-8.885-27.981-13.72-41.833C186.249,624.348,184.255,623.434,182.278,622.52z"/>
		<path fill="#1D1F73" stroke="#1D1F73" stroke-width="0.0938" stroke-miterlimit="10.43" d="M357.913,624.446    c5.635-4.248,13.28-3.725,19.732-6.011c0.195,14.587-0.653,29.223,0.556,43.777c2.271,0.392,4.539,0.799,6.828,1.208    c-0.115,0.931-0.311,2.777-0.425,3.693c-8.217-0.214-16.467,0.26-24.684-0.165c-0.474-0.833-1.403-2.5-1.861-3.332    c2.124-0.425,4.247-0.817,6.387-1.192c0.441-0.751,1.356-2.271,1.796-3.023c-0.147-10.765,0.065-21.513-0.131-32.262    C363.385,626.258,360.625,625.36,357.913,624.446z"/>
		<path fill="#1D1F73" stroke="#1D1F73" stroke-width="0.0938" stroke-miterlimit="10.43" d="M469.709,622.389    c6.078-0.981,12.089-2.37,18.001-4.052c0.083,14.178,0.032,28.374,0,42.568c2.794,1.259,5.603,2.402,8.43,3.578    c-1.274,1.225-2.401,3.055-4.476,2.597c-7.449,0.146-14.914-0.097-22.363,0.034c-0.098-0.834-0.277-2.484-0.358-3.3    c2.4-0.751,4.785-1.519,7.169-2.354c0.131-11.498,0.115-23.016-0.032-34.516c-2.303-0.62-4.607-1.241-6.911-1.846    C469.317,624.413,469.576,623.057,469.709,622.389z"/>
		<path fill="#1D1F73" stroke="#1D1F73" stroke-width="0.0938" stroke-miterlimit="10.43" d="M658.574,622.371    c6.109-0.979,12.121-2.484,18.133-3.969c0,14.521-0.507,29.06,0.327,43.549c2.988,0.898,7.595,0.555,7.056,5.096    c-8.95,0.048-17.903,0.066-26.838,0c0.049-4.036,3.904-4.248,6.894-5.114c1.65-11.76,1.779-23.979-0.113-35.708    c-1.765-0.065-3.546-0.131-5.31-0.164C658.688,625.133,658.609,623.285,658.574,622.371z"/>
	</g>
</g>
</svg>